<?xml version="1.0" encoding="UTF-8" standalone="no"?>
<svg
   id="svg22"
   version="1.0"
   preserveAspectRatio="xMidYMid meet"
   height="500"
   viewBox="0 0 375 374.999991"
   zoomAndPan="magnify"
   width="500"
   sodipodi:docname="Achievements.svg"
   inkscape:version="1.3 (0e150ed6c4, 2023-07-21)"
   xmlns:inkscape="http://www.inkscape.org/namespaces/inkscape"
   xmlns:sodipodi="http://sodipodi.sourceforge.net/DTD/sodipodi-0.dtd"
   xmlns="http://www.w3.org/2000/svg"
   xmlns:svg="http://www.w3.org/2000/svg"
   xmlns:rdf="http://www.w3.org/1999/02/22-rdf-syntax-ns#"
   xmlns:cc="http://creativecommons.org/ns#"
   xmlns:dc="http://purl.org/dc/elements/1.1/">
  <sodipodi:namedview
     id="namedview1"
     pagecolor="#505050"
     bordercolor="#eeeeee"
     borderopacity="1"
     inkscape:showpageshadow="0"
     inkscape:pageopacity="0"
     inkscape:pagecheckerboard="0"
     inkscape:deskcolor="#505050"
     inkscape:zoom="1.6079608"
     inkscape:cx="140.55069"
     inkscape:cy="310.6419"
     inkscape:window-width="2560"
     inkscape:window-height="1351"
     inkscape:window-x="1341"
     inkscape:window-y="-9"
     inkscape:window-maximized="1"
     inkscape:current-layer="svg22" />
  <metadata
     id="metadata26">
    <rdf:RDF>
      <cc:Work
         rdf:about="">
        <dc:format>image/svg+xml</dc:format>
        <dc:type
           rdf:resource="http://purl.org/dc/dcmitype/StillImage" />
      </cc:Work>
    </rdf:RDF>
  </metadata>
  <defs
     id="defs8">
    <clipPath
       id="f1e9851100">
      <path
         id="path2"
         clip-rule="nonzero"
         d="M 10.546875 13 L 364.546875 13 L 364.546875 375 L 10.546875 375 Z M 10.546875 13 " />
    </clipPath>
    <clipPath
       id="0588b3ac65">
      <path
         id="path5"
         clip-rule="nonzero"
         d="M 174.40625 174 L 200.65625 174 L 200.65625 201.375 L 174.40625 201.375 Z M 174.40625 174 " />
    </clipPath>
  </defs>
  <path
     id="path14"
     fill-rule="nonzero"
     fill-opacity="1"
     d="m 341.03516,54.910156 c -5.80079,-3.351562 -11.71094,-6.511718 -17.71875,-9.472656 -6.01172,-2.964844 -12.11329,-5.730469 -18.30469,-8.292969 -6.19141,-2.566406 -12.46094,-4.925781 -18.80469,-7.078125 -6.34766,-2.15625 -12.75781,-4.101562 -19.23047,-5.835937 -6.47265,-1.734375 -12.99609,-3.253907 -19.57031,-4.5625 -6.57031,-1.304688 -13.17969,-2.398438 -19.82422,-3.273438 -6.64453,-0.875 -13.3125,-1.53125 -20,-1.96875 -6.6875,-0.4375 -13.37891,-0.65625 -20.08203,-0.65625 -6.70313,0 -13.39453,0.21875 -20.08203,0.65625 -6.6875,0.4375 -13.35547,1.09375 -20,1.96875 -6.64453,0.875 -13.25391,1.96875 -19.82422,3.273438 -6.57422,1.308593 -13.09766,2.828125 -19.57031,4.5625 -6.47266,1.734375 -12.882815,3.679687 -19.230471,5.835937 -6.34375,2.152344 -12.613281,4.511719 -18.804688,7.078125 -6.191406,2.5625 -12.292969,5.328125 -18.304687,8.292969 -6.007813,2.960938 -11.917969,6.121094 -17.71875,9.472656 L 10.546875,68.421875 v 27.085937 c 0,6.699218 0.222656,13.394528 0.660156,20.082028 0.4375,6.6836 1.097657,13.35157 1.972657,19.99219 0.875,6.64453 1.964843,13.25391 3.273437,19.82422 1.308594,6.57031 2.832031,13.09375 4.566406,19.56641 1.734375,6.47265 3.679688,12.88281 5.832031,19.22656 2.15625,6.34375 4.515626,12.61328 7.082032,18.80469 2.5625,6.1875 5.328125,12.28906 8.292968,18.30078 2.960938,6.00781 6.121094,11.91406 9.472657,17.71875 3.347656,5.80078 6.886719,11.48828 10.609375,17.05859 3.722656,5.57422 7.625,11.01563 11.703125,16.33203 4.082031,5.31641 8.328125,10.49219 12.746093,15.53125 4.417969,5.03906 8.996094,9.92578 13.738278,14.66406 4.73829,4.73829 9.625,9.31641 14.66407,13.73438 5.03515,4.41797 10.21484,8.66797 15.53125,12.74609 5.3164,4.07813 10.75781,7.98047 16.33203,11.70313 5.57031,3.72265 11.25781,7.25781 17.05859,10.60937 L 187.5,374.90625 210.91797,361.39453 c 5.80078,-3.35156 11.48828,-6.88672 17.05859,-10.60937 5.57422,-3.72657 11.01563,-7.625 16.33203,-11.70313 5.31641,-4.08203 10.49219,-8.32812 15.53125,-12.74609 5.03907,-4.41797 9.92578,-8.9961 14.66407,-13.73438 4.73828,-4.73828 9.3164,-9.625 13.73437,-14.66406 4.41797,-5.03906 8.66797,-10.21484 12.74609,-15.53125 4.08204,-5.31641 7.98047,-10.75781 11.70313,-16.32813 3.72656,-5.57421 7.26172,-11.25781 10.61328,-17.0625 3.35156,-5.80078 6.50781,-11.70703 9.47266,-17.71875 2.96484,-6.00781 5.72656,-12.10937 8.29297,-18.29687 2.5625,-6.19141 4.92578,-12.46094 7.07812,-18.80469 2.15625,-6.34375 4.10156,-12.7539 5.83594,-19.22656 1.73437,-6.47266 3.2539,-12.99219 4.5625,-19.5625 1.30859,-6.57422 2.40234,-13.17969 3.27734,-19.82422 0.875,-6.64453 1.53125,-13.30859 1.97266,-19.99609 0.4375,-6.6836 0.66015,-13.37891 0.66015,-20.078128 V 68.421875 Z m 0,0"
     fill="#272727"
     style="fill:#ffffff;fill-opacity:1"
     transform="matrix(1.0359706,0,0,1.0359209,-6.7444874,-13.818685)" />
</svg>
