<svg xmlns="http://www.w3.org/2000/svg" xmlns:xlink="http://www.w3.org/1999/xlink" width="500" zoomAndPan="magnify" viewBox="0 0 375 374.999991" height="500" preserveAspectRatio="xMidYMid meet" version="1.0"><path fill="#f441ae" d="M 187.5 375 C 137.417969 375 90.332031 355.496094 54.917969 320.082031 C 19.503906 284.667969 0 237.582031 0 187.5 C 0 137.417969 19.503906 90.332031 54.917969 54.917969 C 90.332031 19.503906 137.417969 0 187.5 0 C 237.582031 0 284.667969 19.503906 320.082031 54.917969 C 355.496094 90.332031 375 137.417969 375 187.5 C 375 215.394531 367.175781 241.261719 366.816406 242.4375 C 363.695312 252.65625 359.667969 262.664062 354.839844 272.214844 L 373.214844 365.113281 C 373.578125 366.945312 373.011719 368.839844 371.707031 370.175781 C 370.398438 371.511719 368.519531 372.113281 366.679688 371.792969 L 271.542969 355.117188 C 261.476562 360.183594 250.914062 364.347656 240.117188 367.503906 C 239.058594 367.8125 214.082031 375 187.5 375 Z M 187.5 375 " fill-opacity="1" fill-rule="nonzero"/></svg>