<?xml version="1.0" encoding="UTF-8" standalone="no"?>
<svg
   width="500"
   zoomAndPan="magnify"
   viewBox="0 0 375 374.999991"
   height="500"
   preserveAspectRatio="xMidYMid meet"
   version="1.0"
   id="svg218"
   sodipodi:docname="Interrested.svg"
   inkscape:version="1.2.2 (732a01da63, 2022-12-09)"
   xmlns:inkscape="http://www.inkscape.org/namespaces/inkscape"
   xmlns:sodipodi="http://sodipodi.sourceforge.net/DTD/sodipodi-0.dtd"
   xmlns="http://www.w3.org/2000/svg"
   xmlns:svg="http://www.w3.org/2000/svg">
  <sodipodi:namedview
     id="namedview220"
     pagecolor="#505050"
     bordercolor="#eeeeee"
     borderopacity="1"
     inkscape:showpageshadow="0"
     inkscape:pageopacity="0"
     inkscape:pagecheckerboard="0"
     inkscape:deskcolor="#505050"
     showgrid="false"
     inkscape:zoom="1.664"
     inkscape:cx="249.69952"
     inkscape:cy="250"
     inkscape:window-width="1920"
     inkscape:window-height="1009"
     inkscape:window-x="-8"
     inkscape:window-y="-8"
     inkscape:window-maximized="1"
     inkscape:current-layer="svg218" />
  <defs
     id="defs208">
    <clipPath
       id="0dc81c4a79">
      <path
         d="M 40 31.046875 L 334 31.046875 L 334 343.796875 L 40 343.796875 Z M 40 31.046875 "
         clip-rule="nonzero"
         id="path202" />
    </clipPath>
    <clipPath
       id="231a7a769f">
      <path
         d="M 260 4.519531 L 310.59375 4.519531 L 310.59375 57.769531 L 260 57.769531 Z M 260 4.519531 "
         clip-rule="nonzero"
         id="path205" />
    </clipPath>
  </defs>
  <g
     clip-path="url(#0dc81c4a79)"
     id="g212">
    <path
       fill="#000000"
       d="M 330.667969 249.976562 L 313.433594 280.582031 C 307.667969 290.839844 294.1875 293.667969 284.773438 286.605469 L 212.65625 232.542969 L 223.34375 321.382812 C 224.734375 332.988281 215.683594 343.191406 204.007812 343.191406 L 169.707031 343.191406 C 158.03125 343.191406 148.96875 332.988281 150.371094 321.394531 L 161.058594 232.554688 L 88.929688 286.605469 C 79.511719 293.667969 66.03125 290.824219 60.265625 280.582031 L 43.03125 249.976562 C 37.226562 239.667969 41.875 226.609375 52.902344 222.300781 L 138.175781 188.875 L 52.214844 153.164062 C 41.472656 148.699219 37.007812 135.886719 42.667969 125.722656 L 59.96875 94.648438 C 65.8125 84.109375 79.746094 81.382812 89.164062 88.921875 L 161.460938 146.871094 L 150.316406 53.433594 C 148.953125 41.84375 158.007812 31.652344 169.667969 31.652344 L 204.019531 31.652344 C 215.695312 31.652344 224.746094 41.84375 223.355469 53.421875 L 212.214844 146.855469 L 284.511719 88.910156 C 293.929688 81.367188 307.863281 84.09375 313.722656 94.636719 L 331.019531 125.710938 C 336.667969 135.875 332.214844 148.6875 321.472656 153.152344 L 235.511719 188.863281 L 320.785156 222.289062 C 331.824219 226.609375 336.472656 239.667969 330.667969 249.976562 Z M 330.667969 249.976562 "
       fill-opacity="1"
       fill-rule="nonzero"
       id="path210" />
  </g>
</svg>
