<?xml version="1.0" encoding="UTF-8" standalone="no"?>
<svg
   width="500"
   zoomAndPan="magnify"
   viewBox="0 0 375 374.999991"
   height="500"
   preserveAspectRatio="xMidYMid meet"
   version="1.0"
   id="svg4"
   xmlns="http://www.w3.org/2000/svg"
   xmlns:svg="http://www.w3.org/2000/svg">
  <defs
     id="defs2">
    <clipPath
       id="88b1ab2a2f">
      <path
         d="M 0 23.023438 L 375 23.023438 L 375 351.976562 L 0 351.976562 Z M 0 23.023438 "
         clip-rule="nonzero"
         id="path1" />
    </clipPath>
    <clipPath
       id="4d768670f8">
      <path
         d="M 0 120.074219 C 0 224.550781 187.5 351.976562 187.5 351.976562 C 187.5 351.976562 374.175781 223.648438 375 120.074219 C 375 66.601562 331.425781 23.023438 277.949219 23.023438 C 236.851562 23.023438 201.449219 49.351562 187.5 85.5 C 173.550781 49.351562 138.148438 23.023438 97.050781 23.023438 C 43.574219 23.023438 0 66.601562 0 120.074219 "
         clip-rule="nonzero"
         id="path2" />
    </clipPath>
    <clipPath
       id="de2efb655b">
      <path
         d="M 8,44 H 196 V 212.58594 H 8 Z m 0,0"
         clip-rule="nonzero"
         id="path1-9" />
    </clipPath>
  </defs>
  <path
     id="path3-0"
     style="fill:#ff0020;fill-opacity:1"
     d="M 53.659277 44.840189 C 33.878046 45.505228 14.812356 59.218718 9.5662671 86.195253 C 0.046745579 135.14442 102.04688 212.37137 102.04688 212.37137 C 102.04688 212.37137 204.04702 135.14442 194.52749 86.195253 C 184.03532 32.242183 118.26561 31.339555 102.04688 81.777005 C 93.937507 56.55828 73.440508 44.175151 53.659277 44.840189 z M 60.589976 63.743948 C 77.53779 63.198871 95.09907 73.349449 102.04688 94.019203 C 115.94247 52.679694 172.29145 53.419247 181.28074 97.640217 C 189.43672 137.75991 102.04688 201.05588 102.04688 201.05588 C 102.04688 201.05588 14.657041 137.75991 22.81301 97.640217 C 27.307661 75.529732 43.642162 64.289025 60.589976 63.743948 z "
     transform="matrix(2.0137984,0,0,2.0137984,-18.001838,-72.839629)" />
</svg>
