<?xml version="1.0" encoding="UTF-8" standalone="no"?>
<svg
   width="500"
   zoomAndPan="magnify"
   viewBox="0 0 375 374.999991"
   height="500"
   preserveAspectRatio="xMidYMid meet"
   version="1.0"
   id="svg4"
   sodipodi:docname="liked.svg"
   inkscape:version="1.3 (0e150ed6c4, 2023-07-21)"
   xmlns:inkscape="http://www.inkscape.org/namespaces/inkscape"
   xmlns:sodipodi="http://sodipodi.sourceforge.net/DTD/sodipodi-0.dtd"
   xmlns="http://www.w3.org/2000/svg"
   xmlns:svg="http://www.w3.org/2000/svg">
  <sodipodi:namedview
     id="namedview4"
     pagecolor="#505050"
     bordercolor="#eeeeee"
     borderopacity="1"
     inkscape:showpageshadow="0"
     inkscape:pageopacity="0"
     inkscape:pagecheckerboard="0"
     inkscape:deskcolor="#505050"
     inkscape:zoom="2.274"
     inkscape:cx="249.78012"
     inkscape:cy="250"
     inkscape:window-width="2560"
     inkscape:window-height="1351"
     inkscape:window-x="1341"
     inkscape:window-y="-9"
     inkscape:window-maximized="1"
     inkscape:current-layer="svg4" />
  <defs
     id="defs2">
    <clipPath
       id="88b1ab2a2f">
      <path
         d="M 0 23.023438 L 375 23.023438 L 375 351.976562 L 0 351.976562 Z M 0 23.023438 "
         clip-rule="nonzero"
         id="path1" />
    </clipPath>
    <clipPath
       id="4d768670f8">
      <path
         d="M 0 120.074219 C 0 224.550781 187.5 351.976562 187.5 351.976562 C 187.5 351.976562 374.175781 223.648438 375 120.074219 C 375 66.601562 331.425781 23.023438 277.949219 23.023438 C 236.851562 23.023438 201.449219 49.351562 187.5 85.5 C 173.550781 49.351562 138.148438 23.023438 97.050781 23.023438 C 43.574219 23.023438 0 66.601562 0 120.074219 "
         clip-rule="nonzero"
         id="path2" />
    </clipPath>
    <clipPath
       id="de2efb655b">
      <path
         d="M 8,44 H 196 V 212.58594 H 8 Z m 0,0"
         clip-rule="nonzero"
         id="path1-9" />
    </clipPath>
  </defs>
  <path
     fill="#c6302c"
     d="M 194.52734,86.195312 C 184.03516,32.242188 118.26563,31.339844 102.04688,81.777344 85.828125,31.339844 20.058594,32.242188 9.566406,86.195312 0.046875,135.14453 102.04688,212.37109 102.04688,212.37109 c 0,0 102,-77.22656 92.48046,-126.175778 z"
     fill-opacity="1"
     fill-rule="nonzero"
     id="path3-0"
     sodipodi:nodetypes="ccccc"
     style="fill:#ff0020;fill-opacity:1"
     transform="matrix(2.0137984,0,0,2.0137984,-18.001838,-72.839629)" />
</svg>
