<?xml version="1.0" encoding="UTF-8" standalone="no"?>
<svg
   width="500"
   zoomAndPan="magnify"
   viewBox="0 0 375 374.999991"
   height="500"
   preserveAspectRatio="xMidYMid meet"
   version="1.0"
   id="svg4"
   sodipodi:docname="like.svg"
   inkscape:version="1.3 (0e150ed6c4, 2023-07-21)"
   xmlns:inkscape="http://www.inkscape.org/namespaces/inkscape"
   xmlns:sodipodi="http://sodipodi.sourceforge.net/DTD/sodipodi-0.dtd"
   xmlns="http://www.w3.org/2000/svg"
   xmlns:svg="http://www.w3.org/2000/svg">
  <sodipodi:namedview
     id="namedview4"
     pagecolor="#505050"
     bordercolor="#eeeeee"
     borderopacity="1"
     inkscape:showpageshadow="0"
     inkscape:pageopacity="0"
     inkscape:pagecheckerboard="0"
     inkscape:deskcolor="#505050"
     inkscape:zoom="1.137"
     inkscape:cx="461.74142"
     inkscape:cy="1.3192612"
     inkscape:window-width="2560"
     inkscape:window-height="1351"
     inkscape:window-x="-9"
     inkscape:window-y="-9"
     inkscape:window-maximized="1"
     inkscape:current-layer="svg4" />
  <defs
     id="defs2">
    <clipPath
       id="88b1ab2a2f">
      <path
         d="M 0 23.023438 L 375 23.023438 L 375 351.976562 L 0 351.976562 Z M 0 23.023438 "
         clip-rule="nonzero"
         id="path1" />
    </clipPath>
    <clipPath
       id="4d768670f8">
      <path
         d="M 0 120.074219 C 0 224.550781 187.5 351.976562 187.5 351.976562 C 187.5 351.976562 374.175781 223.648438 375 120.074219 C 375 66.601562 331.425781 23.023438 277.949219 23.023438 C 236.851562 23.023438 201.449219 49.351562 187.5 85.5 C 173.550781 49.351562 138.148438 23.023438 97.050781 23.023438 C 43.574219 23.023438 0 66.601562 0 120.074219 "
         clip-rule="nonzero"
         id="path2" />
    </clipPath>
    <clipPath
       id="de2efb655b">
      <path
         d="M 8,44 H 196 V 212.58594 H 8 Z m 0,0"
         clip-rule="nonzero"
         id="path1-9" />
    </clipPath>
  </defs>
  <path
     fill="#c6302c"
     d="M 349.37573,111.53598 C 331.01045,17.097645 215.88894,15.518202 187.50001,103.80287 159.11106,15.518202 43.989558,17.097645 25.624268,111.53598 8.9614946,197.21559 187.50001,332.39122 187.50001,332.39122 c 0,0 178.5385,-135.17563 161.87572,-220.85524 z"
     fill-opacity="1"
     fill-rule="nonzero"
     id="path3-0"
     sodipodi:nodetypes="ccccc"
     style="fill:none;fill-opacity:1;stroke:#ff0020;stroke-width:48.892;stroke-linecap:round;stroke-linejoin:round;stroke-dasharray:none;stroke-dashoffset:0;stroke-opacity:1;paint-order:normal" />
</svg>
