<svg xmlns="http://www.w3.org/2000/svg" xmlns:xlink="http://www.w3.org/1999/xlink" width="500" zoomAndPan="magnify" viewBox="0 0 375 374.999991" height="500" preserveAspectRatio="xMidYMid meet" version="1.0"><defs><clipPath id="4558f23b89"><path d="M 140.453125 0 L 234.203125 0 L 234.203125 375 L 140.453125 375 Z M 140.453125 0 " clip-rule="nonzero"/></clipPath></defs><g clip-path="url(#4558f23b89)"><path fill="#ffffff" d="M 187.5 93.75 C 213.398438 93.75 234.375 72.773438 234.375 46.875 C 234.375 20.976562 213.398438 0 187.5 0 C 161.601562 0 140.625 20.976562 140.625 46.875 C 140.625 72.773438 161.601562 93.75 187.5 93.75 Z M 187.5 140.625 C 161.601562 140.625 140.625 161.601562 140.625 187.5 C 140.625 213.398438 161.601562 234.375 187.5 234.375 C 213.398438 234.375 234.375 213.398438 234.375 187.5 C 234.375 161.601562 213.398438 140.625 187.5 140.625 Z M 187.5 281.25 C 161.601562 281.25 140.625 302.226562 140.625 328.125 C 140.625 354.023438 161.601562 375 187.5 375 C 213.398438 375 234.375 354.023438 234.375 328.125 C 234.375 302.226562 213.398438 281.25 187.5 281.25 Z M 187.5 281.25 " fill-opacity="1" fill-rule="nonzero"/></g></svg>