<?xml version="1.0" encoding="UTF-8" standalone="no"?>
<svg
   width="500"
   zoomAndPan="magnify"
   viewBox="0 0 375 374.999991"
   height="500"
   preserveAspectRatio="xMidYMid meet"
   version="1.0"
   id="svg50"
   xmlns="http://www.w3.org/2000/svg"
   xmlns:svg="http://www.w3.org/2000/svg">
  <defs
     id="defs25">
    <clipPath
       id="f474e35e9d">
      <path
         d="M 119.34375 87 L 255.84375 87 L 255.84375 287.902344 L 119.34375 287.902344 Z M 119.34375 87 "
         clip-rule="nonzero"
         id="path1" />
    </clipPath>
    <clipPath
       id="619b36acd3">
      <path
         d="M 0 0 L 375 0 L 375 75.003906 L 0 75.003906 Z M 0 0 "
         clip-rule="nonzero"
         id="path2" />
    </clipPath>
    <clipPath
       id="581e50be1e">
      <path
         d="M 26.25 0 L 348.75 0 C 355.710938 0 362.390625 2.765625 367.3125 7.6875 C 372.234375 12.609375 375 19.289062 375 26.25 L 375 48.753906 C 375 55.71875 372.234375 62.394531 367.3125 67.316406 C 362.390625 72.238281 355.710938 75.003906 348.75 75.003906 L 26.25 75.003906 C 19.289062 75.003906 12.609375 72.238281 7.6875 67.316406 C 2.765625 62.394531 0 55.71875 0 48.753906 L 0 26.25 C 0 19.289062 2.765625 12.609375 7.6875 7.6875 C 12.609375 2.765625 19.289062 0 26.25 0 Z M 26.25 0 "
         clip-rule="nonzero"
         id="path3" />
    </clipPath>
    <clipPath
       id="6b419ca14d">
      <path
         d="M 0 300.097656 L 375 300.097656 L 375 375 L 0 375 Z M 0 300.097656 "
         clip-rule="nonzero"
         id="path4" />
    </clipPath>
    <clipPath
       id="534792b890">
      <path
         d="M 26.25 300.097656 L 348.75 300.097656 C 355.710938 300.097656 362.390625 302.863281 367.3125 307.785156 C 372.234375 312.707031 375 319.386719 375 326.347656 L 375 348.75 C 375 355.710938 372.234375 362.390625 367.3125 367.3125 C 362.390625 372.234375 355.710938 375 348.75 375 L 26.25 375 C 19.289062 375 12.609375 372.234375 7.6875 367.3125 C 2.765625 362.390625 0 355.710938 0 348.75 L 0 326.347656 C 0 319.386719 2.765625 312.707031 7.6875 307.785156 C 12.609375 302.863281 19.289062 300.097656 26.25 300.097656 Z M 26.25 300.097656 "
         clip-rule="nonzero"
         id="path5" />
    </clipPath>
    <clipPath
       id="fd937efb07">
      <path
         d="M 13.921875 15.003906 L 58.921875 15.003906 L 58.921875 60.003906 L 13.921875 60.003906 Z M 13.921875 15.003906 "
         clip-rule="nonzero"
         id="path6" />
    </clipPath>
    <clipPath
       id="0bcbb91364">
      <path
         d="M 30.796875 15.003906 L 42.046875 15.003906 C 46.523438 15.003906 50.816406 16.78125 53.980469 19.945312 C 57.144531 23.109375 58.921875 27.402344 58.921875 31.878906 L 58.921875 43.128906 C 58.921875 47.601562 57.144531 51.894531 53.980469 55.058594 C 50.816406 58.222656 46.523438 60.003906 42.046875 60.003906 L 30.796875 60.003906 C 26.320312 60.003906 22.03125 58.222656 18.863281 55.058594 C 15.699219 51.894531 13.921875 47.601562 13.921875 43.128906 L 13.921875 31.878906 C 13.921875 27.402344 15.699219 23.109375 18.863281 19.945312 C 22.03125 16.78125 26.320312 15.003906 30.796875 15.003906 Z M 30.796875 15.003906 "
         clip-rule="nonzero"
         id="path7" />
    </clipPath>
    <clipPath
       id="2a9b185beb">
      <path
         d="M 165 15.003906 L 210 15.003906 L 210 60.003906 L 165 60.003906 Z M 165 15.003906 "
         clip-rule="nonzero"
         id="path8" />
    </clipPath>
    <clipPath
       id="491e8bcc1c">
      <path
         d="M 181.875 15.003906 L 193.125 15.003906 C 197.601562 15.003906 201.894531 16.78125 205.058594 19.945312 C 208.222656 23.109375 210 27.402344 210 31.878906 L 210 43.128906 C 210 47.601562 208.222656 51.894531 205.058594 55.058594 C 201.894531 58.222656 197.601562 60.003906 193.125 60.003906 L 181.875 60.003906 C 177.398438 60.003906 173.105469 58.222656 169.941406 55.058594 C 166.777344 51.894531 165 47.601562 165 43.128906 L 165 31.878906 C 165 27.402344 166.777344 23.109375 169.941406 19.945312 C 173.105469 16.78125 177.398438 15.003906 181.875 15.003906 Z M 181.875 15.003906 "
         clip-rule="nonzero"
         id="path9" />
    </clipPath>
    <clipPath
       id="6efa020cfe">
      <path
         d="M 315.789062 15 L 360.789062 15 L 360.789062 60 L 315.789062 60 Z M 315.789062 15 "
         clip-rule="nonzero"
         id="path10" />
    </clipPath>
    <clipPath
       id="d9f6a390ba">
      <path
         d="M 332.664062 15 L 343.914062 15 C 348.390625 15 352.683594 16.777344 355.847656 19.941406 C 359.011719 23.105469 360.789062 27.398438 360.789062 31.875 L 360.789062 43.125 C 360.789062 47.601562 359.011719 51.890625 355.847656 55.058594 C 352.683594 58.222656 348.390625 60 343.914062 60 L 332.664062 60 C 328.1875 60 323.894531 58.222656 320.730469 55.058594 C 317.566406 51.890625 315.789062 47.601562 315.789062 43.125 L 315.789062 31.875 C 315.789062 27.398438 317.566406 23.105469 320.730469 19.941406 C 323.894531 16.777344 328.1875 15 332.664062 15 Z M 332.664062 15 "
         clip-rule="nonzero"
         id="path11" />
    </clipPath>
    <clipPath
       id="b24e5607aa">
      <path
         d="M 240.394531 15.003906 L 285.394531 15.003906 L 285.394531 60.003906 L 240.394531 60.003906 Z M 240.394531 15.003906 "
         clip-rule="nonzero"
         id="path12" />
    </clipPath>
    <clipPath
       id="779dabf30d">
      <path
         d="M 257.269531 15.003906 L 268.519531 15.003906 C 272.996094 15.003906 277.289062 16.78125 280.453125 19.945312 C 283.617188 23.109375 285.394531 27.402344 285.394531 31.878906 L 285.394531 43.128906 C 285.394531 47.601562 283.617188 51.894531 280.453125 55.058594 C 277.289062 58.222656 272.996094 60.003906 268.519531 60.003906 L 257.269531 60.003906 C 252.792969 60.003906 248.5 58.222656 245.335938 55.058594 C 242.171875 51.894531 240.394531 47.601562 240.394531 43.128906 L 240.394531 31.878906 C 240.394531 27.402344 242.171875 23.109375 245.335938 19.945312 C 248.5 16.78125 252.792969 15.003906 257.269531 15.003906 Z M 257.269531 15.003906 "
         clip-rule="nonzero"
         id="path13" />
    </clipPath>
    <clipPath
       id="c19a45c20c">
      <path
         d="M 89.25 15 L 134.25 15 L 134.25 60 L 89.25 60 Z M 89.25 15 "
         clip-rule="nonzero"
         id="path14" />
    </clipPath>
    <clipPath
       id="e7c351cffe">
      <path
         d="M 106.125 15 L 117.375 15 C 121.851562 15 126.144531 16.777344 129.308594 19.941406 C 132.472656 23.105469 134.25 27.398438 134.25 31.875 L 134.25 43.125 C 134.25 47.601562 132.472656 51.890625 129.308594 55.058594 C 126.144531 58.222656 121.851562 60 117.375 60 L 106.125 60 C 101.648438 60 97.355469 58.222656 94.191406 55.058594 C 91.027344 51.890625 89.25 47.601562 89.25 43.125 L 89.25 31.875 C 89.25 27.398438 91.027344 23.105469 94.191406 19.941406 C 97.355469 16.777344 101.648438 15 106.125 15 Z M 106.125 15 "
         clip-rule="nonzero"
         id="path15" />
    </clipPath>
    <clipPath
       id="dd0303b64d">
      <path
         d="M 14.066406 315.101562 L 59.066406 315.101562 L 59.066406 360.101562 L 14.066406 360.101562 Z M 14.066406 315.101562 "
         clip-rule="nonzero"
         id="path16" />
    </clipPath>
    <clipPath
       id="59b3221f73">
      <path
         d="M 30.941406 315.101562 L 42.191406 315.101562 C 46.667969 315.101562 50.960938 316.878906 54.125 320.042969 C 57.289062 323.207031 59.066406 327.5 59.066406 331.976562 L 59.066406 343.226562 C 59.066406 347.699219 57.289062 351.992188 54.125 355.15625 C 50.960938 358.320312 46.667969 360.101562 42.191406 360.101562 L 30.941406 360.101562 C 26.464844 360.101562 22.175781 358.320312 19.007812 355.15625 C 15.84375 351.992188 14.066406 347.699219 14.066406 343.226562 L 14.066406 331.976562 C 14.066406 327.5 15.84375 323.207031 19.007812 320.042969 C 22.175781 316.878906 26.464844 315.101562 30.941406 315.101562 Z M 30.941406 315.101562 "
         clip-rule="nonzero"
         id="path17" />
    </clipPath>
    <clipPath
       id="e4edde3cba">
      <path
         d="M 165.144531 315.101562 L 210.144531 315.101562 L 210.144531 360.101562 L 165.144531 360.101562 Z M 165.144531 315.101562 "
         clip-rule="nonzero"
         id="path18" />
    </clipPath>
    <clipPath
       id="d795ca9ffd">
      <path
         d="M 182.019531 315.101562 L 193.269531 315.101562 C 197.746094 315.101562 202.035156 316.878906 205.203125 320.042969 C 208.367188 323.207031 210.144531 327.5 210.144531 331.976562 L 210.144531 343.226562 C 210.144531 347.699219 208.367188 351.992188 205.203125 355.15625 C 202.035156 358.320312 197.746094 360.101562 193.269531 360.101562 L 182.019531 360.101562 C 177.542969 360.101562 173.25 358.320312 170.085938 355.15625 C 166.921875 351.992188 165.144531 347.699219 165.144531 343.226562 L 165.144531 331.976562 C 165.144531 327.5 166.921875 323.207031 170.085938 320.042969 C 173.25 316.878906 177.542969 315.101562 182.019531 315.101562 Z M 182.019531 315.101562 "
         clip-rule="nonzero"
         id="path19" />
    </clipPath>
    <clipPath
       id="145fbd0602">
      <path
         d="M 315.933594 315.097656 L 360.933594 315.097656 L 360.933594 360.097656 L 315.933594 360.097656 Z M 315.933594 315.097656 "
         clip-rule="nonzero"
         id="path20" />
    </clipPath>
    <clipPath
       id="7d44217219">
      <path
         d="M 332.808594 315.097656 L 344.058594 315.097656 C 348.535156 315.097656 352.824219 316.875 355.992188 320.039062 C 359.15625 323.203125 360.933594 327.496094 360.933594 331.972656 L 360.933594 343.222656 C 360.933594 347.699219 359.15625 351.988281 355.992188 355.15625 C 352.824219 358.320312 348.535156 360.097656 344.058594 360.097656 L 332.808594 360.097656 C 328.332031 360.097656 324.039062 358.320312 320.875 355.15625 C 317.710938 351.988281 315.933594 347.699219 315.933594 343.222656 L 315.933594 331.972656 C 315.933594 327.496094 317.710938 323.203125 320.875 320.039062 C 324.039062 316.875 328.332031 315.097656 332.808594 315.097656 Z M 332.808594 315.097656 "
         clip-rule="nonzero"
         id="path21" />
    </clipPath>
    <clipPath
       id="d0852ac717">
      <path
         d="M 240.539062 315.101562 L 285.539062 315.101562 L 285.539062 360.101562 L 240.539062 360.101562 Z M 240.539062 315.101562 "
         clip-rule="nonzero"
         id="path22" />
    </clipPath>
    <clipPath
       id="2f754f8554">
      <path
         d="M 257.414062 315.101562 L 268.664062 315.101562 C 273.140625 315.101562 277.429688 316.878906 280.597656 320.042969 C 283.761719 323.207031 285.539062 327.5 285.539062 331.976562 L 285.539062 343.226562 C 285.539062 347.699219 283.761719 351.992188 280.597656 355.15625 C 277.429688 358.320312 273.140625 360.101562 268.664062 360.101562 L 257.414062 360.101562 C 252.9375 360.101562 248.644531 358.320312 245.480469 355.15625 C 242.316406 351.992188 240.539062 347.699219 240.539062 343.226562 L 240.539062 331.976562 C 240.539062 327.5 242.316406 323.207031 245.480469 320.042969 C 248.644531 316.878906 252.9375 315.101562 257.414062 315.101562 Z M 257.414062 315.101562 "
         clip-rule="nonzero"
         id="path23" />
    </clipPath>
    <clipPath
       id="ad4c1f3a46">
      <path
         d="M 89.394531 315.097656 L 134.394531 315.097656 L 134.394531 360.097656 L 89.394531 360.097656 Z M 89.394531 315.097656 "
         clip-rule="nonzero"
         id="path24" />
    </clipPath>
    <clipPath
       id="0a881d8c7d">
      <path
         d="M 106.269531 315.097656 L 117.519531 315.097656 C 121.996094 315.097656 126.285156 316.875 129.453125 320.039062 C 132.617188 323.203125 134.394531 327.496094 134.394531 331.972656 L 134.394531 343.222656 C 134.394531 347.699219 132.617188 351.988281 129.453125 355.15625 C 126.285156 358.320312 121.996094 360.097656 117.519531 360.097656 L 106.269531 360.097656 C 101.792969 360.097656 97.5 358.320312 94.335938 355.15625 C 91.171875 351.988281 89.394531 347.699219 89.394531 343.222656 L 89.394531 331.972656 C 89.394531 327.496094 91.171875 323.203125 94.335938 320.039062 C 97.5 316.875 101.792969 315.097656 106.269531 315.097656 Z M 106.269531 315.097656 "
         clip-rule="nonzero"
         id="path25" />
    </clipPath>
  </defs>
  <g
     clip-path="url(#f474e35e9d)"
     id="g26"
     style="fill:#ffffff;fill-opacity:1">
    <path
       fill="#000000"
       d="M 130.308594 287.886719 C 129.484375 287.886719 128.65625 287.535156 128.066406 287.0625 C 126.652344 285.886719 126.417969 284.125 127.242188 282.59375 L 169.796875 202.511719 L 123 198.515625 C 121.46875 198.398438 120.289062 197.457031 119.816406 196.046875 C 119.34375 194.753906 119.816406 193.339844 120.996094 192.28125 L 244.648438 87.976562 C 246.0625 86.917969 247.828125 86.917969 249.125 87.976562 C 250.421875 89.152344 250.777344 90.917969 250.070312 92.445312 L 207.398438 174.410156 L 252.542969 179.113281 C 254.078125 179.230469 255.136719 180.289062 255.492188 181.582031 C 255.84375 182.875 255.492188 184.285156 254.3125 185.34375 L 132.429688 287.0625 C 131.722656 287.652344 131.015625 287.886719 130.308594 287.886719 Z M 130.308594 287.886719 "
       fill-opacity="1"
       fill-rule="evenodd"
       id="path26"
       style="fill:#ffffff;fill-opacity:1" />
  </g>
  <g
     clip-path="url(#619b36acd3)"
     id="g28">
    <g
       clip-path="url(#581e50be1e)"
       id="g27">
      <path
         fill="#000000"
         d="M 0 0 L 375.023438 0 L 375.023438 75.003906 L 0 75.003906 Z M 0 0 "
         fill-opacity="1"
         fill-rule="nonzero"
         id="path27" />
    </g>
  </g>
  <g
     clip-path="url(#6b419ca14d)"
     id="g30">
    <g
       clip-path="url(#534792b890)"
       id="g29">
      <path
         fill="#000000"
         d="M 0 300.097656 L 375.097656 300.097656 L 375.097656 375 L 0 375 Z M 0 300.097656 "
         fill-opacity="1"
         fill-rule="nonzero"
         id="path28" />
    </g>
  </g>
  <g
     clip-path="url(#fd937efb07)"
     id="g32">
    <g
       clip-path="url(#0bcbb91364)"
       id="g31">
      <path
         fill="#ffffff"
         d="M 13.921875 15.003906 L 58.921875 15.003906 L 58.921875 60.003906 L 13.921875 60.003906 Z M 13.921875 15.003906 "
         fill-opacity="1"
         fill-rule="nonzero"
         id="path30" />
    </g>
  </g>
  <g
     clip-path="url(#2a9b185beb)"
     id="g34">
    <g
       clip-path="url(#491e8bcc1c)"
       id="g33">
      <path
         fill="#ffffff"
         d="M 165 15.003906 L 210 15.003906 L 210 60.003906 L 165 60.003906 Z M 165 15.003906 "
         fill-opacity="1"
         fill-rule="nonzero"
         id="path32" />
    </g>
  </g>
  <g
     clip-path="url(#6efa020cfe)"
     id="g36">
    <g
       clip-path="url(#d9f6a390ba)"
       id="g35">
      <path
         fill="#ffffff"
         d="M 315.789062 15 L 360.789062 15 L 360.789062 60 L 315.789062 60 Z M 315.789062 15 "
         fill-opacity="1"
         fill-rule="nonzero"
         id="path34" />
    </g>
  </g>
  <g
     clip-path="url(#b24e5607aa)"
     id="g38">
    <g
       clip-path="url(#779dabf30d)"
       id="g37">
      <path
         fill="#ffffff"
         d="M 240.394531 15.003906 L 285.394531 15.003906 L 285.394531 60.003906 L 240.394531 60.003906 Z M 240.394531 15.003906 "
         fill-opacity="1"
         fill-rule="nonzero"
         id="path36" />
    </g>
  </g>
  <g
     clip-path="url(#c19a45c20c)"
     id="g40">
    <g
       clip-path="url(#e7c351cffe)"
       id="g39">
      <path
         fill="#ffffff"
         d="M 89.25 15 L 134.25 15 L 134.25 60 L 89.25 60 Z M 89.25 15 "
         fill-opacity="1"
         fill-rule="nonzero"
         id="path38" />
    </g>
  </g>
  <g
     clip-path="url(#dd0303b64d)"
     id="g42">
    <g
       clip-path="url(#59b3221f73)"
       id="g41">
      <path
         fill="#ffffff"
         d="M 14.066406 315.101562 L 59.066406 315.101562 L 59.066406 360.101562 L 14.066406 360.101562 Z M 14.066406 315.101562 "
         fill-opacity="1"
         fill-rule="nonzero"
         id="path40" />
    </g>
  </g>
  <g
     clip-path="url(#e4edde3cba)"
     id="g44">
    <g
       clip-path="url(#d795ca9ffd)"
       id="g43">
      <path
         fill="#ffffff"
         d="M 165.144531 315.101562 L 210.144531 315.101562 L 210.144531 360.101562 L 165.144531 360.101562 Z M 165.144531 315.101562 "
         fill-opacity="1"
         fill-rule="nonzero"
         id="path42" />
    </g>
  </g>
  <g
     clip-path="url(#145fbd0602)"
     id="g46">
    <g
       clip-path="url(#7d44217219)"
       id="g45">
      <path
         fill="#ffffff"
         d="M 315.933594 315.097656 L 360.933594 315.097656 L 360.933594 360.097656 L 315.933594 360.097656 Z M 315.933594 315.097656 "
         fill-opacity="1"
         fill-rule="nonzero"
         id="path44" />
    </g>
  </g>
  <g
     clip-path="url(#d0852ac717)"
     id="g48">
    <g
       clip-path="url(#2f754f8554)"
       id="g47">
      <path
         fill="#ffffff"
         d="M 240.539062 315.101562 L 285.539062 315.101562 L 285.539062 360.101562 L 240.539062 360.101562 Z M 240.539062 315.101562 "
         fill-opacity="1"
         fill-rule="nonzero"
         id="path46" />
    </g>
  </g>
  <g
     clip-path="url(#ad4c1f3a46)"
     id="g50">
    <g
       clip-path="url(#0a881d8c7d)"
       id="g49">
      <path
         fill="#ffffff"
         d="M 89.394531 315.097656 L 134.394531 315.097656 L 134.394531 360.097656 L 89.394531 360.097656 Z M 89.394531 315.097656 "
         fill-opacity="1"
         fill-rule="nonzero"
         id="path48" />
    </g>
  </g>
</svg>
