<svg xmlns="http://www.w3.org/2000/svg" xmlns:xlink="http://www.w3.org/1999/xlink" width="1920" zoomAndPan="magnify" viewBox="0 0 1440 809.999993" height="1080" preserveAspectRatio="xMidYMid meet" version="1.0"><defs><g/><linearGradient x1="0" gradientTransform="matrix(0.75, 0, 0, 0.75, 0.00000622222, 0.00002)" y1="540" x2="1919.99992" gradientUnits="userSpaceOnUse" y2="540" id="58309e1356"><stop stop-opacity="1" stop-color="rgb(100%, 34.098816%, 34.098816%)" offset="0"/><stop stop-opacity="1" stop-color="rgb(99.822998%, 34.091187%, 34.356689%)" offset="0.00390625"/><stop stop-opacity="1" stop-color="rgb(99.647522%, 34.085083%, 34.614563%)" offset="0.0078125"/><stop stop-opacity="1" stop-color="rgb(99.47052%, 34.077454%, 34.870911%)" offset="0.0117188"/><stop stop-opacity="1" stop-color="rgb(99.295044%, 34.069824%, 35.128784%)" offset="0.015625"/><stop stop-opacity="1" stop-color="rgb(99.118042%, 34.062195%, 35.385132%)" offset="0.0195312"/><stop stop-opacity="1" stop-color="rgb(98.942566%, 34.054565%, 35.643005%)" offset="0.0234375"/><stop stop-opacity="1" stop-color="rgb(98.765564%, 34.046936%, 35.900879%)" offset="0.0273438"/><stop stop-opacity="1" stop-color="rgb(98.590088%, 34.039307%, 36.158752%)" offset="0.03125"/><stop stop-opacity="1" stop-color="rgb(98.413086%, 34.031677%, 36.4151%)" offset="0.0351562"/><stop stop-opacity="1" stop-color="rgb(98.23761%, 34.025574%, 36.672974%)" offset="0.0390625"/><stop stop-opacity="1" stop-color="rgb(98.060608%, 34.017944%, 36.930847%)" offset="0.0429688"/><stop stop-opacity="1" stop-color="rgb(97.885132%, 34.010315%, 37.188721%)" offset="0.046875"/><stop stop-opacity="1" stop-color="rgb(97.70813%, 34.002686%, 37.445068%)" offset="0.0507812"/><stop stop-opacity="1" stop-color="rgb(97.532654%, 33.995056%, 37.702942%)" offset="0.0546875"/><stop stop-opacity="1" stop-color="rgb(97.355652%, 33.987427%, 37.960815%)" offset="0.0585938"/><stop stop-opacity="1" stop-color="rgb(97.180176%, 33.979797%, 38.218689%)" offset="0.0625"/><stop stop-opacity="1" stop-color="rgb(97.003174%, 33.972168%, 38.475037%)" offset="0.0664062"/><stop stop-opacity="1" stop-color="rgb(96.827698%, 33.966064%, 38.73291%)" offset="0.0703125"/><stop stop-opacity="1" stop-color="rgb(96.650696%, 33.958435%, 38.989258%)" offset="0.0742188"/><stop stop-opacity="1" stop-color="rgb(96.47522%, 33.950806%, 39.247131%)" offset="0.078125"/><stop stop-opacity="1" stop-color="rgb(96.298218%, 33.943176%, 39.505005%)" offset="0.0820312"/><stop stop-opacity="1" stop-color="rgb(96.122742%, 33.935547%, 39.762878%)" offset="0.0859375"/><stop stop-opacity="1" stop-color="rgb(95.947266%, 33.927917%, 40.019226%)" offset="0.0898438"/><stop stop-opacity="1" stop-color="rgb(95.77179%, 33.921814%, 40.2771%)" offset="0.09375"/><stop stop-opacity="1" stop-color="rgb(95.594788%, 33.914185%, 40.534973%)" offset="0.0976562"/><stop stop-opacity="1" stop-color="rgb(95.419312%, 33.906555%, 40.792847%)" offset="0.101562"/><stop stop-opacity="1" stop-color="rgb(95.24231%, 33.898926%, 41.049194%)" offset="0.105469"/><stop stop-opacity="1" stop-color="rgb(95.066833%, 33.891296%, 41.307068%)" offset="0.109375"/><stop stop-opacity="1" stop-color="rgb(94.889832%, 33.883667%, 41.563416%)" offset="0.113281"/><stop stop-opacity="1" stop-color="rgb(94.714355%, 33.876038%, 41.821289%)" offset="0.117188"/><stop stop-opacity="1" stop-color="rgb(94.537354%, 33.868408%, 42.079163%)" offset="0.121094"/><stop stop-opacity="1" stop-color="rgb(94.361877%, 33.862305%, 42.337036%)" offset="0.125"/><stop stop-opacity="1" stop-color="rgb(94.184875%, 33.854675%, 42.593384%)" offset="0.128906"/><stop stop-opacity="1" stop-color="rgb(94.009399%, 33.847046%, 42.851257%)" offset="0.132812"/><stop stop-opacity="1" stop-color="rgb(93.832397%, 33.839417%, 43.109131%)" offset="0.136719"/><stop stop-opacity="1" stop-color="rgb(93.656921%, 33.831787%, 43.367004%)" offset="0.140625"/><stop stop-opacity="1" stop-color="rgb(93.479919%, 33.824158%, 43.623352%)" offset="0.144531"/><stop stop-opacity="1" stop-color="rgb(93.304443%, 33.816528%, 43.881226%)" offset="0.148438"/><stop stop-opacity="1" stop-color="rgb(93.127441%, 33.808899%, 44.137573%)" offset="0.152344"/><stop stop-opacity="1" stop-color="rgb(92.951965%, 33.802795%, 44.395447%)" offset="0.15625"/><stop stop-opacity="1" stop-color="rgb(92.774963%, 33.795166%, 44.65332%)" offset="0.160156"/><stop stop-opacity="1" stop-color="rgb(92.599487%, 33.787537%, 44.911194%)" offset="0.164062"/><stop stop-opacity="1" stop-color="rgb(92.422485%, 33.779907%, 45.167542%)" offset="0.167969"/><stop stop-opacity="1" stop-color="rgb(92.247009%, 33.772278%, 45.425415%)" offset="0.171875"/><stop stop-opacity="1" stop-color="rgb(92.071533%, 33.764648%, 45.683289%)" offset="0.175781"/><stop stop-opacity="1" stop-color="rgb(91.896057%, 33.758545%, 45.941162%)" offset="0.179688"/><stop stop-opacity="1" stop-color="rgb(91.719055%, 33.750916%, 46.19751%)" offset="0.183594"/><stop stop-opacity="1" stop-color="rgb(91.543579%, 33.743286%, 46.455383%)" offset="0.1875"/><stop stop-opacity="1" stop-color="rgb(91.366577%, 33.735657%, 46.711731%)" offset="0.191406"/><stop stop-opacity="1" stop-color="rgb(91.191101%, 33.728027%, 46.969604%)" offset="0.195312"/><stop stop-opacity="1" stop-color="rgb(91.014099%, 33.720398%, 47.227478%)" offset="0.199219"/><stop stop-opacity="1" stop-color="rgb(90.838623%, 33.712769%, 47.485352%)" offset="0.203125"/><stop stop-opacity="1" stop-color="rgb(90.661621%, 33.705139%, 47.741699%)" offset="0.207031"/><stop stop-opacity="1" stop-color="rgb(90.486145%, 33.699036%, 47.999573%)" offset="0.210938"/><stop stop-opacity="1" stop-color="rgb(90.309143%, 33.691406%, 48.257446%)" offset="0.214844"/><stop stop-opacity="1" stop-color="rgb(90.133667%, 33.683777%, 48.51532%)" offset="0.21875"/><stop stop-opacity="1" stop-color="rgb(89.956665%, 33.676147%, 48.771667%)" offset="0.222656"/><stop stop-opacity="1" stop-color="rgb(89.781189%, 33.668518%, 49.029541%)" offset="0.226562"/><stop stop-opacity="1" stop-color="rgb(89.604187%, 33.660889%, 49.287415%)" offset="0.230469"/><stop stop-opacity="1" stop-color="rgb(89.428711%, 33.653259%, 49.545288%)" offset="0.234375"/><stop stop-opacity="1" stop-color="rgb(89.251709%, 33.64563%, 49.801636%)" offset="0.238281"/><stop stop-opacity="1" stop-color="rgb(89.076233%, 33.639526%, 50.059509%)" offset="0.242188"/><stop stop-opacity="1" stop-color="rgb(88.899231%, 33.631897%, 50.315857%)" offset="0.246094"/><stop stop-opacity="1" stop-color="rgb(88.723755%, 33.624268%, 50.57373%)" offset="0.25"/><stop stop-opacity="1" stop-color="rgb(88.546753%, 33.616638%, 50.831604%)" offset="0.253906"/><stop stop-opacity="1" stop-color="rgb(88.371277%, 33.609009%, 51.089478%)" offset="0.257812"/><stop stop-opacity="1" stop-color="rgb(88.194275%, 33.601379%, 51.345825%)" offset="0.261719"/><stop stop-opacity="1" stop-color="rgb(88.018799%, 33.595276%, 51.603699%)" offset="0.265625"/><stop stop-opacity="1" stop-color="rgb(87.843323%, 33.587646%, 51.861572%)" offset="0.269531"/><stop stop-opacity="1" stop-color="rgb(87.667847%, 33.580017%, 52.119446%)" offset="0.273438"/><stop stop-opacity="1" stop-color="rgb(87.490845%, 33.572388%, 52.375793%)" offset="0.277344"/><stop stop-opacity="1" stop-color="rgb(87.315369%, 33.564758%, 52.633667%)" offset="0.28125"/><stop stop-opacity="1" stop-color="rgb(87.138367%, 33.557129%, 52.890015%)" offset="0.285156"/><stop stop-opacity="1" stop-color="rgb(86.962891%, 33.5495%, 53.147888%)" offset="0.289062"/><stop stop-opacity="1" stop-color="rgb(86.785889%, 33.54187%, 53.405762%)" offset="0.292969"/><stop stop-opacity="1" stop-color="rgb(86.610413%, 33.535767%, 53.663635%)" offset="0.296875"/><stop stop-opacity="1" stop-color="rgb(86.433411%, 33.528137%, 53.919983%)" offset="0.300781"/><stop stop-opacity="1" stop-color="rgb(86.257935%, 33.520508%, 54.177856%)" offset="0.304688"/><stop stop-opacity="1" stop-color="rgb(86.080933%, 33.512878%, 54.43573%)" offset="0.308594"/><stop stop-opacity="1" stop-color="rgb(85.905457%, 33.505249%, 54.693604%)" offset="0.3125"/><stop stop-opacity="1" stop-color="rgb(85.728455%, 33.49762%, 54.949951%)" offset="0.316406"/><stop stop-opacity="1" stop-color="rgb(85.552979%, 33.48999%, 55.207825%)" offset="0.320312"/><stop stop-opacity="1" stop-color="rgb(85.375977%, 33.482361%, 55.464172%)" offset="0.324219"/><stop stop-opacity="1" stop-color="rgb(85.2005%, 33.476257%, 55.722046%)" offset="0.328125"/><stop stop-opacity="1" stop-color="rgb(85.023499%, 33.468628%, 55.979919%)" offset="0.332031"/><stop stop-opacity="1" stop-color="rgb(84.848022%, 33.460999%, 56.237793%)" offset="0.335938"/><stop stop-opacity="1" stop-color="rgb(84.671021%, 33.453369%, 56.494141%)" offset="0.339844"/><stop stop-opacity="1" stop-color="rgb(84.495544%, 33.44574%, 56.752014%)" offset="0.34375"/><stop stop-opacity="1" stop-color="rgb(84.318542%, 33.43811%, 57.009888%)" offset="0.347656"/><stop stop-opacity="1" stop-color="rgb(84.143066%, 33.432007%, 57.267761%)" offset="0.351562"/><stop stop-opacity="1" stop-color="rgb(83.96759%, 33.424377%, 57.524109%)" offset="0.355469"/><stop stop-opacity="1" stop-color="rgb(83.792114%, 33.416748%, 57.781982%)" offset="0.359375"/><stop stop-opacity="1" stop-color="rgb(83.615112%, 33.409119%, 58.03833%)" offset="0.363281"/><stop stop-opacity="1" stop-color="rgb(83.439636%, 33.401489%, 58.296204%)" offset="0.367188"/><stop stop-opacity="1" stop-color="rgb(83.262634%, 33.39386%, 58.554077%)" offset="0.371094"/><stop stop-opacity="1" stop-color="rgb(83.087158%, 33.38623%, 58.811951%)" offset="0.375"/><stop stop-opacity="1" stop-color="rgb(82.910156%, 33.378601%, 59.068298%)" offset="0.378906"/><stop stop-opacity="1" stop-color="rgb(82.73468%, 33.372498%, 59.326172%)" offset="0.382812"/><stop stop-opacity="1" stop-color="rgb(82.557678%, 33.364868%, 59.584045%)" offset="0.386719"/><stop stop-opacity="1" stop-color="rgb(82.382202%, 33.357239%, 59.841919%)" offset="0.390625"/><stop stop-opacity="1" stop-color="rgb(82.2052%, 33.349609%, 60.098267%)" offset="0.394531"/><stop stop-opacity="1" stop-color="rgb(82.029724%, 33.34198%, 60.35614%)" offset="0.398438"/><stop stop-opacity="1" stop-color="rgb(81.852722%, 33.334351%, 60.612488%)" offset="0.402344"/><stop stop-opacity="1" stop-color="rgb(81.677246%, 33.326721%, 60.870361%)" offset="0.40625"/><stop stop-opacity="1" stop-color="rgb(81.500244%, 33.319092%, 61.128235%)" offset="0.410156"/><stop stop-opacity="1" stop-color="rgb(81.324768%, 33.312988%, 61.386108%)" offset="0.414062"/><stop stop-opacity="1" stop-color="rgb(81.147766%, 33.305359%, 61.642456%)" offset="0.417969"/><stop stop-opacity="1" stop-color="rgb(80.97229%, 33.297729%, 61.90033%)" offset="0.421875"/><stop stop-opacity="1" stop-color="rgb(80.795288%, 33.2901%, 62.158203%)" offset="0.425781"/><stop stop-opacity="1" stop-color="rgb(80.619812%, 33.282471%, 62.416077%)" offset="0.429688"/><stop stop-opacity="1" stop-color="rgb(80.44281%, 33.274841%, 62.672424%)" offset="0.433594"/><stop stop-opacity="1" stop-color="rgb(80.267334%, 33.268738%, 62.930298%)" offset="0.4375"/><stop stop-opacity="1" stop-color="rgb(80.091858%, 33.261108%, 63.188171%)" offset="0.441406"/><stop stop-opacity="1" stop-color="rgb(79.916382%, 33.253479%, 63.446045%)" offset="0.445312"/><stop stop-opacity="1" stop-color="rgb(79.73938%, 33.24585%, 63.702393%)" offset="0.449219"/><stop stop-opacity="1" stop-color="rgb(79.563904%, 33.23822%, 63.960266%)" offset="0.453125"/><stop stop-opacity="1" stop-color="rgb(79.386902%, 33.230591%, 64.216614%)" offset="0.457031"/><stop stop-opacity="1" stop-color="rgb(79.211426%, 33.222961%, 64.474487%)" offset="0.460938"/><stop stop-opacity="1" stop-color="rgb(79.034424%, 33.215332%, 64.732361%)" offset="0.464844"/><stop stop-opacity="1" stop-color="rgb(78.858948%, 33.209229%, 64.990234%)" offset="0.46875"/><stop stop-opacity="1" stop-color="rgb(78.681946%, 33.201599%, 65.246582%)" offset="0.472656"/><stop stop-opacity="1" stop-color="rgb(78.50647%, 33.19397%, 65.504456%)" offset="0.476562"/><stop stop-opacity="1" stop-color="rgb(78.329468%, 33.18634%, 65.762329%)" offset="0.480469"/><stop stop-opacity="1" stop-color="rgb(78.153992%, 33.178711%, 66.020203%)" offset="0.484375"/><stop stop-opacity="1" stop-color="rgb(77.97699%, 33.171082%, 66.27655%)" offset="0.488281"/><stop stop-opacity="1" stop-color="rgb(77.801514%, 33.163452%, 66.534424%)" offset="0.492188"/><stop stop-opacity="1" stop-color="rgb(77.624512%, 33.155823%, 66.790771%)" offset="0.496094"/><stop stop-opacity="1" stop-color="rgb(77.449036%, 33.149719%, 67.048645%)" offset="0.5"/><stop stop-opacity="1" stop-color="rgb(77.272034%, 33.14209%, 67.306519%)" offset="0.503906"/><stop stop-opacity="1" stop-color="rgb(77.096558%, 33.13446%, 67.564392%)" offset="0.507812"/><stop stop-opacity="1" stop-color="rgb(76.919556%, 33.126831%, 67.82074%)" offset="0.511719"/><stop stop-opacity="1" stop-color="rgb(76.74408%, 33.119202%, 68.078613%)" offset="0.515625"/><stop stop-opacity="1" stop-color="rgb(76.567078%, 33.111572%, 68.336487%)" offset="0.519531"/><stop stop-opacity="1" stop-color="rgb(76.391602%, 33.105469%, 68.59436%)" offset="0.523438"/><stop stop-opacity="1" stop-color="rgb(76.2146%, 33.097839%, 68.850708%)" offset="0.527344"/><stop stop-opacity="1" stop-color="rgb(76.039124%, 33.09021%, 69.108582%)" offset="0.53125"/><stop stop-opacity="1" stop-color="rgb(75.863647%, 33.082581%, 69.364929%)" offset="0.535156"/><stop stop-opacity="1" stop-color="rgb(75.688171%, 33.074951%, 69.622803%)" offset="0.539062"/><stop stop-opacity="1" stop-color="rgb(75.511169%, 33.067322%, 69.880676%)" offset="0.542969"/><stop stop-opacity="1" stop-color="rgb(75.335693%, 33.059692%, 70.13855%)" offset="0.546875"/><stop stop-opacity="1" stop-color="rgb(75.158691%, 33.052063%, 70.394897%)" offset="0.550781"/><stop stop-opacity="1" stop-color="rgb(74.983215%, 33.045959%, 70.652771%)" offset="0.554688"/><stop stop-opacity="1" stop-color="rgb(74.806213%, 33.03833%, 70.910645%)" offset="0.558594"/><stop stop-opacity="1" stop-color="rgb(74.630737%, 33.030701%, 71.168518%)" offset="0.5625"/><stop stop-opacity="1" stop-color="rgb(74.453735%, 33.023071%, 71.424866%)" offset="0.566406"/><stop stop-opacity="1" stop-color="rgb(74.278259%, 33.015442%, 71.682739%)" offset="0.570312"/><stop stop-opacity="1" stop-color="rgb(74.101257%, 33.007812%, 71.939087%)" offset="0.574219"/><stop stop-opacity="1" stop-color="rgb(73.925781%, 33.000183%, 72.19696%)" offset="0.578125"/><stop stop-opacity="1" stop-color="rgb(73.748779%, 32.992554%, 72.454834%)" offset="0.582031"/><stop stop-opacity="1" stop-color="rgb(73.573303%, 32.98645%, 72.712708%)" offset="0.585938"/><stop stop-opacity="1" stop-color="rgb(73.396301%, 32.978821%, 72.969055%)" offset="0.589844"/><stop stop-opacity="1" stop-color="rgb(73.220825%, 32.971191%, 73.226929%)" offset="0.59375"/><stop stop-opacity="1" stop-color="rgb(73.043823%, 32.963562%, 73.484802%)" offset="0.597656"/><stop stop-opacity="1" stop-color="rgb(72.868347%, 32.955933%, 73.742676%)" offset="0.601562"/><stop stop-opacity="1" stop-color="rgb(72.691345%, 32.948303%, 73.999023%)" offset="0.605469"/><stop stop-opacity="1" stop-color="rgb(72.515869%, 32.940674%, 74.256897%)" offset="0.609375"/><stop stop-opacity="1" stop-color="rgb(72.338867%, 32.933044%, 74.514771%)" offset="0.613281"/><stop stop-opacity="1" stop-color="rgb(72.163391%, 32.926941%, 74.772644%)" offset="0.617188"/><stop stop-opacity="1" stop-color="rgb(71.987915%, 32.919312%, 75.028992%)" offset="0.621094"/><stop stop-opacity="1" stop-color="rgb(71.812439%, 32.911682%, 75.286865%)" offset="0.625"/><stop stop-opacity="1" stop-color="rgb(71.635437%, 32.904053%, 75.543213%)" offset="0.628906"/><stop stop-opacity="1" stop-color="rgb(71.459961%, 32.896423%, 75.801086%)" offset="0.632812"/><stop stop-opacity="1" stop-color="rgb(71.282959%, 32.888794%, 76.05896%)" offset="0.636719"/><stop stop-opacity="1" stop-color="rgb(71.107483%, 32.88269%, 76.316833%)" offset="0.640625"/><stop stop-opacity="1" stop-color="rgb(70.930481%, 32.875061%, 76.573181%)" offset="0.644531"/><stop stop-opacity="1" stop-color="rgb(70.755005%, 32.867432%, 76.831055%)" offset="0.648438"/><stop stop-opacity="1" stop-color="rgb(70.578003%, 32.859802%, 77.088928%)" offset="0.652344"/><stop stop-opacity="1" stop-color="rgb(70.402527%, 32.852173%, 77.346802%)" offset="0.65625"/><stop stop-opacity="1" stop-color="rgb(70.225525%, 32.844543%, 77.603149%)" offset="0.660156"/><stop stop-opacity="1" stop-color="rgb(70.050049%, 32.836914%, 77.861023%)" offset="0.664062"/><stop stop-opacity="1" stop-color="rgb(69.873047%, 32.829285%, 78.117371%)" offset="0.667969"/><stop stop-opacity="1" stop-color="rgb(69.697571%, 32.823181%, 78.375244%)" offset="0.671875"/><stop stop-opacity="1" stop-color="rgb(69.520569%, 32.815552%, 78.633118%)" offset="0.675781"/><stop stop-opacity="1" stop-color="rgb(69.345093%, 32.807922%, 78.890991%)" offset="0.679688"/><stop stop-opacity="1" stop-color="rgb(69.168091%, 32.800293%, 79.147339%)" offset="0.683594"/><stop stop-opacity="1" stop-color="rgb(68.992615%, 32.792664%, 79.405212%)" offset="0.6875"/><stop stop-opacity="1" stop-color="rgb(68.815613%, 32.785034%, 79.663086%)" offset="0.691406"/><stop stop-opacity="1" stop-color="rgb(68.640137%, 32.777405%, 79.920959%)" offset="0.695312"/><stop stop-opacity="1" stop-color="rgb(68.463135%, 32.769775%, 80.177307%)" offset="0.699219"/><stop stop-opacity="1" stop-color="rgb(68.287659%, 32.763672%, 80.435181%)" offset="0.703125"/><stop stop-opacity="1" stop-color="rgb(68.112183%, 32.756042%, 80.691528%)" offset="0.707031"/><stop stop-opacity="1" stop-color="rgb(67.936707%, 32.748413%, 80.949402%)" offset="0.710938"/><stop stop-opacity="1" stop-color="rgb(67.759705%, 32.740784%, 81.207275%)" offset="0.714844"/><stop stop-opacity="1" stop-color="rgb(67.584229%, 32.733154%, 81.465149%)" offset="0.71875"/><stop stop-opacity="1" stop-color="rgb(67.407227%, 32.725525%, 81.721497%)" offset="0.722656"/><stop stop-opacity="1" stop-color="rgb(67.23175%, 32.719421%, 81.97937%)" offset="0.726562"/><stop stop-opacity="1" stop-color="rgb(67.054749%, 32.711792%, 82.237244%)" offset="0.730469"/><stop stop-opacity="1" stop-color="rgb(66.879272%, 32.704163%, 82.495117%)" offset="0.734375"/><stop stop-opacity="1" stop-color="rgb(66.702271%, 32.696533%, 82.751465%)" offset="0.738281"/><stop stop-opacity="1" stop-color="rgb(66.526794%, 32.688904%, 83.009338%)" offset="0.742188"/><stop stop-opacity="1" stop-color="rgb(66.349792%, 32.681274%, 83.265686%)" offset="0.746094"/><stop stop-opacity="1" stop-color="rgb(66.174316%, 32.673645%, 83.52356%)" offset="0.75"/><stop stop-opacity="1" stop-color="rgb(65.997314%, 32.666016%, 83.781433%)" offset="0.753906"/><stop stop-opacity="1" stop-color="rgb(65.821838%, 32.659912%, 84.039307%)" offset="0.757812"/><stop stop-opacity="1" stop-color="rgb(65.644836%, 32.652283%, 84.295654%)" offset="0.761719"/><stop stop-opacity="1" stop-color="rgb(65.46936%, 32.644653%, 84.553528%)" offset="0.765625"/><stop stop-opacity="1" stop-color="rgb(65.292358%, 32.637024%, 84.811401%)" offset="0.769531"/><stop stop-opacity="1" stop-color="rgb(65.116882%, 32.629395%, 85.069275%)" offset="0.773438"/><stop stop-opacity="1" stop-color="rgb(64.93988%, 32.621765%, 85.325623%)" offset="0.777344"/><stop stop-opacity="1" stop-color="rgb(64.764404%, 32.614136%, 85.583496%)" offset="0.78125"/><stop stop-opacity="1" stop-color="rgb(64.587402%, 32.606506%, 85.839844%)" offset="0.785156"/><stop stop-opacity="1" stop-color="rgb(64.411926%, 32.600403%, 86.097717%)" offset="0.789062"/><stop stop-opacity="1" stop-color="rgb(64.234924%, 32.592773%, 86.355591%)" offset="0.792969"/><stop stop-opacity="1" stop-color="rgb(64.059448%, 32.585144%, 86.613464%)" offset="0.796875"/><stop stop-opacity="1" stop-color="rgb(63.883972%, 32.577515%, 86.869812%)" offset="0.800781"/><stop stop-opacity="1" stop-color="rgb(63.708496%, 32.569885%, 87.127686%)" offset="0.804688"/><stop stop-opacity="1" stop-color="rgb(63.531494%, 32.562256%, 87.385559%)" offset="0.808594"/><stop stop-opacity="1" stop-color="rgb(63.356018%, 32.556152%, 87.643433%)" offset="0.8125"/><stop stop-opacity="1" stop-color="rgb(63.179016%, 32.548523%, 87.89978%)" offset="0.816406"/><stop stop-opacity="1" stop-color="rgb(63.00354%, 32.540894%, 88.157654%)" offset="0.820312"/><stop stop-opacity="1" stop-color="rgb(62.826538%, 32.533264%, 88.415527%)" offset="0.824219"/><stop stop-opacity="1" stop-color="rgb(62.651062%, 32.525635%, 88.673401%)" offset="0.828125"/><stop stop-opacity="1" stop-color="rgb(62.47406%, 32.518005%, 88.929749%)" offset="0.832031"/><stop stop-opacity="1" stop-color="rgb(62.298584%, 32.510376%, 89.187622%)" offset="0.835938"/><stop stop-opacity="1" stop-color="rgb(62.121582%, 32.502747%, 89.44397%)" offset="0.839844"/><stop stop-opacity="1" stop-color="rgb(61.946106%, 32.496643%, 89.701843%)" offset="0.84375"/><stop stop-opacity="1" stop-color="rgb(61.769104%, 32.489014%, 89.959717%)" offset="0.847656"/><stop stop-opacity="1" stop-color="rgb(61.593628%, 32.481384%, 90.21759%)" offset="0.851562"/><stop stop-opacity="1" stop-color="rgb(61.416626%, 32.473755%, 90.473938%)" offset="0.855469"/><stop stop-opacity="1" stop-color="rgb(61.24115%, 32.466125%, 90.731812%)" offset="0.859375"/><stop stop-opacity="1" stop-color="rgb(61.064148%, 32.458496%, 90.989685%)" offset="0.863281"/><stop stop-opacity="1" stop-color="rgb(60.888672%, 32.450867%, 91.247559%)" offset="0.867188"/><stop stop-opacity="1" stop-color="rgb(60.71167%, 32.443237%, 91.503906%)" offset="0.871094"/><stop stop-opacity="1" stop-color="rgb(60.536194%, 32.437134%, 91.76178%)" offset="0.875"/><stop stop-opacity="1" stop-color="rgb(60.359192%, 32.429504%, 92.018127%)" offset="0.878906"/><stop stop-opacity="1" stop-color="rgb(60.183716%, 32.421875%, 92.276001%)" offset="0.882812"/><stop stop-opacity="1" stop-color="rgb(60.00824%, 32.414246%, 92.533875%)" offset="0.886719"/><stop stop-opacity="1" stop-color="rgb(59.832764%, 32.406616%, 92.791748%)" offset="0.890625"/><stop stop-opacity="1" stop-color="rgb(59.655762%, 32.398987%, 93.048096%)" offset="0.894531"/><stop stop-opacity="1" stop-color="rgb(59.480286%, 32.392883%, 93.305969%)" offset="0.898438"/><stop stop-opacity="1" stop-color="rgb(59.303284%, 32.385254%, 93.563843%)" offset="0.902344"/><stop stop-opacity="1" stop-color="rgb(59.127808%, 32.377625%, 93.821716%)" offset="0.90625"/><stop stop-opacity="1" stop-color="rgb(58.950806%, 32.369995%, 94.078064%)" offset="0.910156"/><stop stop-opacity="1" stop-color="rgb(58.77533%, 32.362366%, 94.335938%)" offset="0.914062"/><stop stop-opacity="1" stop-color="rgb(58.598328%, 32.354736%, 94.592285%)" offset="0.917969"/><stop stop-opacity="1" stop-color="rgb(58.422852%, 32.347107%, 94.850159%)" offset="0.921875"/><stop stop-opacity="1" stop-color="rgb(58.24585%, 32.339478%, 95.108032%)" offset="0.925781"/><stop stop-opacity="1" stop-color="rgb(58.070374%, 32.333374%, 95.365906%)" offset="0.929688"/><stop stop-opacity="1" stop-color="rgb(57.893372%, 32.325745%, 95.622253%)" offset="0.933594"/><stop stop-opacity="1" stop-color="rgb(57.717896%, 32.318115%, 95.880127%)" offset="0.9375"/><stop stop-opacity="1" stop-color="rgb(57.540894%, 32.310486%, 96.138%)" offset="0.941406"/><stop stop-opacity="1" stop-color="rgb(57.365417%, 32.302856%, 96.395874%)" offset="0.945312"/><stop stop-opacity="1" stop-color="rgb(57.188416%, 32.295227%, 96.652222%)" offset="0.949219"/><stop stop-opacity="1" stop-color="rgb(57.012939%, 32.287598%, 96.910095%)" offset="0.953125"/><stop stop-opacity="1" stop-color="rgb(56.835938%, 32.279968%, 97.166443%)" offset="0.957031"/><stop stop-opacity="1" stop-color="rgb(56.660461%, 32.273865%, 97.424316%)" offset="0.960938"/><stop stop-opacity="1" stop-color="rgb(56.483459%, 32.266235%, 97.68219%)" offset="0.964844"/><stop stop-opacity="1" stop-color="rgb(56.307983%, 32.258606%, 97.940063%)" offset="0.96875"/><stop stop-opacity="1" stop-color="rgb(56.132507%, 32.250977%, 98.196411%)" offset="0.972656"/><stop stop-opacity="1" stop-color="rgb(55.957031%, 32.243347%, 98.454285%)" offset="0.976562"/><stop stop-opacity="1" stop-color="rgb(55.780029%, 32.235718%, 98.712158%)" offset="0.980469"/><stop stop-opacity="1" stop-color="rgb(55.604553%, 32.229614%, 98.970032%)" offset="0.984375"/><stop stop-opacity="1" stop-color="rgb(55.427551%, 32.221985%, 99.226379%)" offset="0.988281"/><stop stop-opacity="1" stop-color="rgb(55.252075%, 32.214355%, 99.484253%)" offset="0.992188"/><stop stop-opacity="1" stop-color="rgb(55.075073%, 32.206726%, 99.740601%)" offset="0.996094"/><stop stop-opacity="1" stop-color="rgb(54.899597%, 32.199097%, 99.998474%)" offset="1"/></linearGradient><clipPath id="27ccdb8cd9"><path d="M 139.964844 199.5 L 514.964844 199.5 L 514.964844 574.5 L 139.964844 574.5 Z M 139.964844 199.5 " clip-rule="nonzero"/></clipPath><clipPath id="ad56ce73bd"><path d="M 271.214844 199.5 L 383.714844 199.5 C 418.527344 199.5 451.910156 213.328125 476.523438 237.941406 C 501.136719 262.554688 514.964844 295.941406 514.964844 330.75 L 514.964844 443.25 C 514.964844 478.058594 501.136719 511.445312 476.523438 536.058594 C 451.910156 560.671875 418.527344 574.5 383.714844 574.5 L 271.214844 574.5 C 236.40625 574.5 203.023438 560.671875 178.410156 536.058594 C 153.792969 511.445312 139.964844 478.058594 139.964844 443.25 L 139.964844 330.75 C 139.964844 295.941406 153.792969 262.554688 178.410156 237.941406 C 203.023438 213.328125 236.40625 199.5 271.214844 199.5 Z M 271.214844 199.5 " clip-rule="nonzero"/></clipPath><clipPath id="9aa02de869"><path d="M 128 482 L 248 482 L 248 607 L 128 607 Z M 128 482 " clip-rule="nonzero"/></clipPath><clipPath id="27d9e4f1f6"><path d="M 176.996094 646.734375 L 80.855469 566.507812 L 150.957031 482.507812 L 247.09375 562.738281 Z M 176.996094 646.734375 " clip-rule="nonzero"/></clipPath><clipPath id="24560527e0"><path d="M 128.996094 606.679688 L 151.097656 482.625 L 247.09375 562.738281 Z M 128.996094 606.679688 " clip-rule="nonzero"/></clipPath><clipPath id="33348ed30b"><path d="M 263 343 L 327.457031 343 L 327.457031 431.269531 L 263 431.269531 Z M 263 343 " clip-rule="nonzero"/></clipPath><clipPath id="5189405ddc"><path d="M 193 343 L 258 343 L 258 431.269531 L 193 431.269531 Z M 193 343 " clip-rule="nonzero"/></clipPath><clipPath id="e83c9db131"><path d="M 327.464844 342.722656 L 392 342.722656 L 392 431 L 327.464844 431 Z M 327.464844 342.722656 " clip-rule="nonzero"/></clipPath><clipPath id="37b41ada58"><path d="M 397 342.722656 L 461 342.722656 L 461 431 L 397 431 Z M 397 342.722656 " clip-rule="nonzero"/></clipPath></defs><rect x="-144" fill="url(#58309e1356)" width="1728" y="-80.999999" height="971.999992"/><g clip-path="url(#27ccdb8cd9)"><g clip-path="url(#ad56ce73bd)"><path stroke-linecap="butt" transform="matrix(0.75, 0, 0, 0.75, 139.966727, 199.50001)" fill="none" stroke-linejoin="miter" d="M 174.997498 -0.0000132846 L 324.997505 -0.0000132846 C 371.414174 -0.0000132846 415.924593 18.437488 448.742303 51.255198 C 481.560013 84.072908 499.997514 128.588535 499.997514 174.999996 L 499.997514 325.000003 C 499.997514 371.411464 481.560013 415.927091 448.742303 448.744801 C 415.924593 481.562511 371.414174 500.000012 324.997505 500.000012 L 174.997498 500.000012 C 128.586037 500.000012 84.075618 481.562511 51.257908 448.744801 C 18.43499 415.927091 -0.00251124 371.411464 -0.00251124 325.000003 L -0.00251124 174.999996 C -0.00251124 128.588535 18.43499 84.072908 51.257908 51.255198 C 84.075618 18.437488 128.586037 -0.0000132846 174.997498 -0.0000132846 Z M 174.997498 -0.0000132846 " stroke="#ffffff" stroke-width="92" stroke-opacity="1" stroke-miterlimit="4"/></g></g><g clip-path="url(#9aa02de869)"><g clip-path="url(#27d9e4f1f6)"><g clip-path="url(#24560527e0)"><path fill="#ffffff" d="M 176.996094 646.734375 L 80.855469 566.507812 L 150.957031 482.507812 L 247.09375 562.738281 Z M 176.996094 646.734375 " fill-opacity="1" fill-rule="nonzero"/></g></g></g><g clip-path="url(#33348ed30b)"><path fill="#ffffff" d="M 263.609375 398.382812 C 264.699219 413.246094 272.15625 426.40625 288.289062 430.367188 C 290.746094 430.972656 293.277344 431.269531 295.808594 431.269531 C 313.175781 431.269531 327.253906 417.191406 327.253906 399.824219 C 327.253906 392.148438 324.398438 384.640625 319.289062 378.914062 C 316.773438 376.089844 313.75 373.722656 310.398438 371.964844 C 306.496094 369.917969 302.636719 369.546875 298.480469 368.425781 C 294.636719 367.390625 294.644531 362.164062 295.613281 359.066406 C 297.273438 353.75 301.226562 350.21875 306.789062 349.5625 C 307.933594 349.425781 309.09375 349.382812 310.21875 349.121094 C 312.429688 348.605469 314.339844 346.726562 311.878906 345.15625 C 308.074219 342.726562 301.808594 343.171875 297.597656 343.996094 C 292.75 344.945312 288.179688 347.082031 284.136719 349.890625 C 270.542969 359.324219 262.277344 380.128906 263.609375 398.382812 Z M 263.609375 398.382812 " fill-opacity="1" fill-rule="nonzero"/></g><g clip-path="url(#5189405ddc)"><path fill="#ffffff" d="M 194.097656 398.382812 C 195.1875 413.246094 202.644531 426.40625 218.777344 430.367188 C 221.234375 430.972656 223.761719 431.269531 226.296875 431.269531 C 243.664062 431.269531 257.742188 417.191406 257.742188 399.824219 C 257.742188 392.148438 254.882812 384.640625 249.777344 378.914062 C 247.257812 376.089844 244.238281 373.722656 240.886719 371.964844 C 236.980469 369.917969 233.125 369.546875 228.96875 368.425781 C 225.125 367.390625 225.132812 362.164062 226.101562 359.066406 C 227.757812 353.75 231.714844 350.21875 237.277344 349.5625 C 238.417969 349.425781 239.582031 349.382812 240.703125 349.121094 C 242.917969 348.605469 244.828125 346.726562 242.363281 345.15625 C 238.5625 342.726562 232.296875 343.171875 228.082031 343.996094 C 223.234375 344.945312 218.667969 347.082031 214.625 349.890625 C 201.03125 359.324219 192.761719 380.128906 194.097656 398.382812 Z M 194.097656 398.382812 " fill-opacity="1" fill-rule="nonzero"/></g><g fill="#ffffff" fill-opacity="1"><g transform="translate(565.799498, 461.13908)"><g><path d="M 15.25 0 L 43.21875 -159.25 L 109.875 -159.25 C 125.039062 -159.25 136.300781 -154.734375 143.65625 -145.703125 C 151.019531 -136.679688 154.703125 -126.03125 154.703125 -113.75 C 154.703125 -98.425781 149.390625 -85.414062 138.765625 -74.71875 C 128.148438 -64.03125 113.742188 -58.6875 95.546875 -58.6875 L 56.640625 -58.6875 L 46.40625 0 Z M 98.734375 -87.8125 C 106.773438 -87.8125 112.84375 -90.195312 116.9375 -94.96875 C 121.03125 -99.75 123.078125 -105.023438 123.078125 -110.796875 C 123.078125 -123.679688 117.46875 -130.125 106.25 -130.125 L 69.390625 -130.125 L 61.875 -87.8125 Z M 98.734375 -87.8125 "/></g></g></g><g fill="#ffffff" fill-opacity="1"><g transform="translate(705.709393, 461.13908)"><g><path d="M 64.609375 2.734375 C 49.742188 2.734375 37.953125 -1.550781 29.234375 -10.125 C 20.515625 -18.695312 16.15625 -30.941406 16.15625 -46.859375 C 16.15625 -65.972656 21.953125 -82.769531 33.546875 -97.25 C 45.148438 -111.738281 60.585938 -118.984375 79.859375 -118.984375 C 93.804688 -118.984375 104.722656 -114.660156 112.609375 -106.015625 C 120.492188 -97.367188 124.4375 -86.144531 124.4375 -72.34375 C 124.4375 -63.394531 123 -54.828125 120.125 -46.640625 L 45.953125 -46.640625 L 45.953125 -44.359375 C 45.953125 -37.835938 48.113281 -32.679688 52.4375 -28.890625 C 56.757812 -25.097656 62.03125 -23.203125 68.25 -23.203125 C 78.101562 -23.203125 86.820312 -27.222656 94.40625 -35.265625 L 109.421875 -16.15625 C 97.296875 -3.5625 82.359375 2.734375 64.609375 2.734375 Z M 50.28125 -71.65625 L 96.234375 -71.65625 C 96.234375 -73.175781 96.082031 -75 95.78125 -77.125 C 93.800781 -87.738281 87.429688 -93.046875 76.671875 -93.046875 C 70.148438 -93.046875 64.570312 -91.222656 59.9375 -87.578125 C 55.3125 -83.941406 52.09375 -78.632812 50.28125 -71.65625 Z M 50.28125 -71.65625 "/></g></g></g><g fill="#ffffff" fill-opacity="1"><g transform="translate(825.827155, 461.13908)"><g><path d="M 15.25 0 L 35.71875 -116.25 L 65.0625 -116.25 L 63.015625 -104.65625 C 70.453125 -114.207031 80.007812 -118.984375 91.6875 -118.984375 C 102.757812 -118.984375 111.210938 -115.53125 117.046875 -108.625 C 122.890625 -101.726562 125.8125 -92.972656 125.8125 -82.359375 C 125.8125 -78.410156 125.203125 -73.101562 123.984375 -66.4375 L 112.15625 0 L 83.03125 0 L 94.40625 -64.15625 C 95.164062 -69.007812 95.546875 -72.722656 95.546875 -75.296875 C 95.546875 -85.921875 90.617188 -91.234375 80.765625 -91.234375 C 75.304688 -91.234375 70.1875 -89.179688 65.40625 -85.078125 C 60.625 -80.984375 57.550781 -74.921875 56.1875 -66.890625 L 44.359375 0 Z M 15.25 0 "/></g></g></g><g fill="#ffffff" fill-opacity="1"><g transform="translate(952.542259, 461.13908)"><g><path d="M 54.828125 2.734375 C 45.273438 2.734375 36.476562 0.765625 28.4375 -3.171875 C 20.394531 -7.117188 14.707031 -12.28125 11.375 -18.65625 L 32.53125 -34.8125 C 39.351562 -26.46875 47.769531 -22.296875 57.78125 -22.296875 C 62.332031 -22.296875 66.238281 -23.164062 69.5 -24.90625 C 72.757812 -26.65625 74.390625 -29.273438 74.390625 -32.765625 C 74.390625 -35.796875 71.8125 -38.863281 66.65625 -41.96875 C 61.5 -45.082031 55.8125 -47.925781 49.59375 -50.5 C 43.375 -53.082031 37.6875 -57.140625 32.53125 -62.671875 C 27.375 -68.210938 24.796875 -74.695312 24.796875 -82.125 C 24.796875 -93.351562 29.117188 -102.300781 37.765625 -108.96875 C 46.410156 -115.644531 57.554688 -118.984375 71.203125 -118.984375 C 79.847656 -118.984375 87.660156 -117.085938 94.640625 -113.296875 C 101.617188 -109.503906 106.773438 -105.179688 110.109375 -100.328125 L 88.046875 -84.171875 C 83.335938 -90.992188 76.660156 -94.40625 68.015625 -94.40625 C 63.617188 -94.40625 60.054688 -93.492188 57.328125 -91.671875 C 54.597656 -89.859375 53.234375 -87.4375 53.234375 -84.40625 C 53.234375 -82.125 54.976562 -79.882812 58.46875 -77.6875 C 61.957031 -75.488281 66.164062 -73.289062 71.09375 -71.09375 C 76.019531 -68.894531 80.910156 -66.351562 85.765625 -63.46875 C 90.617188 -60.59375 94.789062 -56.765625 98.28125 -51.984375 C 101.769531 -47.203125 103.515625 -41.78125 103.515625 -35.71875 C 103.515625 -23.738281 99.148438 -14.332031 90.421875 -7.5 C 81.703125 -0.675781 69.835938 2.734375 54.828125 2.734375 Z M 54.828125 2.734375 "/></g></g></g><g fill="#ffffff" fill-opacity="1"><g transform="translate(1058.100296, 461.13908)"><g><path d="M 64.609375 2.734375 C 49.742188 2.734375 37.953125 -1.550781 29.234375 -10.125 C 20.515625 -18.695312 16.15625 -30.941406 16.15625 -46.859375 C 16.15625 -65.972656 21.953125 -82.769531 33.546875 -97.25 C 45.148438 -111.738281 60.585938 -118.984375 79.859375 -118.984375 C 93.804688 -118.984375 104.722656 -114.660156 112.609375 -106.015625 C 120.492188 -97.367188 124.4375 -86.144531 124.4375 -72.34375 C 124.4375 -63.394531 123 -54.828125 120.125 -46.640625 L 45.953125 -46.640625 L 45.953125 -44.359375 C 45.953125 -37.835938 48.113281 -32.679688 52.4375 -28.890625 C 56.757812 -25.097656 62.03125 -23.203125 68.25 -23.203125 C 78.101562 -23.203125 86.820312 -27.222656 94.40625 -35.265625 L 109.421875 -16.15625 C 97.296875 -3.5625 82.359375 2.734375 64.609375 2.734375 Z M 50.28125 -71.65625 L 96.234375 -71.65625 C 96.234375 -73.175781 96.082031 -75 95.78125 -77.125 C 93.800781 -87.738281 87.429688 -93.046875 76.671875 -93.046875 C 70.148438 -93.046875 64.570312 -91.222656 59.9375 -87.578125 C 55.3125 -83.941406 52.09375 -78.632812 50.28125 -71.65625 Z M 50.28125 -71.65625 "/></g></g></g><g fill="#ffffff" fill-opacity="1"><g transform="translate(1178.218032, 461.13908)"><g><path d="M 14.5625 0 L 35.03125 -116.25 L 64.15625 -116.25 L 62.109375 -105.328125 C 64.378906 -109.273438 67.675781 -112.570312 72 -115.21875 C 76.320312 -117.875 81.0625 -119.203125 86.21875 -119.203125 C 93.957031 -119.203125 100.707031 -116.171875 106.46875 -110.109375 L 97.828125 -83.03125 C 92.367188 -87.882812 86.300781 -90.3125 79.625 -90.3125 C 74.164062 -90.3125 69.125 -88.335938 64.5 -84.390625 C 59.875 -80.453125 56.726562 -73.9375 55.0625 -64.84375 L 43.6875 0 Z M 14.5625 0 "/></g></g></g><g fill="#ffffff" fill-opacity="1"><g transform="translate(1269.67128, 461.13908)"><g><path d="M 26.84375 2.734375 C 22.144531 2.734375 18.316406 1.21875 15.359375 -1.8125 C 12.398438 -4.851562 10.921875 -8.570312 10.921875 -12.96875 C 10.921875 -19.1875 12.890625 -24.378906 16.828125 -28.546875 C 20.773438 -32.722656 25.554688 -34.8125 31.171875 -34.8125 C 36.171875 -34.8125 40.1875 -33.332031 43.21875 -30.375 C 46.257812 -27.414062 47.78125 -23.660156 47.78125 -19.109375 C 47.78125 -12.742188 45.804688 -7.507812 41.859375 -3.40625 C 37.910156 0.6875 32.90625 2.734375 26.84375 2.734375 Z M 26.84375 2.734375 "/></g></g></g><g clip-path="url(#e83c9db131)"><path fill="#ffffff" d="M 391.3125 375.609375 C 390.226562 360.75 382.769531 347.585938 366.632812 343.625 C 364.179688 343.023438 361.648438 342.722656 359.117188 342.722656 C 341.75 342.722656 327.671875 356.800781 327.671875 374.167969 C 327.671875 381.84375 330.527344 389.351562 335.632812 395.078125 C 338.152344 397.902344 341.171875 400.269531 344.523438 402.027344 C 348.429688 404.078125 352.289062 404.449219 356.445312 405.570312 C 360.289062 406.601562 360.28125 411.828125 359.3125 414.925781 C 357.652344 420.242188 353.695312 423.773438 348.136719 424.433594 C 346.992188 424.566406 345.832031 424.609375 344.707031 424.871094 C 342.492188 425.390625 340.582031 427.265625 343.046875 428.839844 C 346.851562 431.265625 353.113281 430.824219 357.328125 429.996094 C 362.175781 429.046875 366.742188 426.910156 370.785156 424.105469 C 384.378906 414.671875 392.648438 393.863281 391.3125 375.609375 Z M 391.3125 375.609375 " fill-opacity="1" fill-rule="nonzero"/></g><g clip-path="url(#37b41ada58)"><path fill="#ffffff" d="M 460.824219 375.609375 C 459.738281 360.75 452.28125 347.585938 436.148438 343.625 C 433.691406 343.023438 431.160156 342.722656 428.628906 342.722656 C 411.261719 342.722656 397.183594 356.800781 397.183594 374.167969 C 397.183594 381.84375 400.039062 389.351562 405.148438 395.078125 C 407.664062 397.902344 410.6875 400.269531 414.039062 402.027344 C 417.941406 404.078125 421.800781 404.449219 425.957031 405.570312 C 429.800781 406.601562 429.792969 411.828125 428.824219 414.925781 C 427.164062 420.242188 423.207031 423.773438 417.648438 424.433594 C 416.503906 424.566406 415.34375 424.609375 414.21875 424.871094 C 412.007812 425.390625 410.097656 427.265625 412.558594 428.839844 C 416.363281 431.265625 422.625 430.824219 426.839844 429.996094 C 431.6875 429.046875 436.257812 426.910156 440.300781 424.105469 C 453.894531 414.671875 462.160156 393.863281 460.824219 375.609375 Z M 460.824219 375.609375 " fill-opacity="1" fill-rule="nonzero"/></g></svg>