<?xml version="1.0" encoding="UTF-8" standalone="no"?>
<svg
   width="1920"
   zoomAndPan="magnify"
   viewBox="0 0 1440 539.99999"
   height="720"
   preserveAspectRatio="xMidYMid"
   version="1.0"
   id="svg39"
   sodipodi:docname="Penser_Logo.svg"
   inkscape:version="1.3 (0e150ed6c4, 2023-07-21)"
   xmlns:inkscape="http://www.inkscape.org/namespaces/inkscape"
   xmlns:sodipodi="http://sodipodi.sourceforge.net/DTD/sodipodi-0.dtd"
   xmlns="http://www.w3.org/2000/svg"
   xmlns:svg="http://www.w3.org/2000/svg">
  <sodipodi:namedview
     id="namedview39"
     pagecolor="#505050"
     bordercolor="#eeeeee"
     borderopacity="1"
     inkscape:showpageshadow="0"
     inkscape:pageopacity="0"
     inkscape:pagecheckerboard="0"
     inkscape:deskcolor="#505050"
     inkscape:zoom="0.6872194"
     inkscape:cx="845.43597"
     inkscape:cy="466.37216"
     inkscape:window-width="2560"
     inkscape:window-height="1351"
     inkscape:window-x="1341"
     inkscape:window-y="-9"
     inkscape:window-maximized="1"
     inkscape:current-layer="svg39" />
  <defs
     id="defs9">
    <g
       id="g1" />
    <clipPath
       id="570a36d6fb">
      <path
         d="m 105.47656,194.82422 h 375 v 375 h -375 z m 0,0"
         clip-rule="nonzero"
         id="path1" />
    </clipPath>
    <clipPath
       id="ce4f117bc9">
      <path
         d="m 236.72656,194.82422 h 112.5 c 34.8086,0 68.19141,13.82812 92.8086,38.4414 24.61328,24.61719 38.4414,58 38.4414,92.8086 v 112.5 c 0,34.80859 -13.82812,68.19531 -38.4414,92.80859 -24.61719,24.61328 -58,38.44141 -92.8086,38.44141 h -112.5 c -34.80859,0 -68.19531,-13.82813 -92.80859,-38.44141 -24.61328,-24.61328 -38.44141,-58 -38.44141,-92.80859 v -112.5 c 0,-34.8086 13.82813,-68.19141 38.44141,-92.8086 24.61328,-24.61328 58,-38.4414 92.80859,-38.4414 z m 0,0"
         clip-rule="nonzero"
         id="path2" />
    </clipPath>
    <clipPath
       id="817a982b62">
      <path
         d="M 94,477 H 213 V 603 H 94 Z m 0,0"
         clip-rule="nonzero"
         id="path3" />
    </clipPath>
    <clipPath
       id="1dabc5c7b4">
      <path
         d="m 142.50391,642.05859 -96.136722,-80.22656 70.097652,-84 96.13672,80.23047 z m 0,0"
         clip-rule="nonzero"
         id="path4" />
    </clipPath>
    <clipPath
       id="f57df962ea">
      <path
         d="m 94.503906,602.00391 22.101564,-124.05469 95.99609,80.11328 z m 0,0"
         clip-rule="nonzero"
         id="path5" />
    </clipPath>
    <clipPath
       id="b4b3ae8290">
      <path
         d="m 228,338.09375 h 64.96875 v 88.5 H 228 Z m 0,0"
         clip-rule="nonzero"
         id="path6" />
    </clipPath>
    <clipPath
       id="5be83d30e8">
      <path
         d="m 159,338.09375 h 65 v 88.5 h -65 z m 0,0"
         clip-rule="nonzero"
         id="path7" />
    </clipPath>
    <clipPath
       id="641a4328dd">
      <path
         d="m 293,338.04687 h 64 V 426 h -64 z m 0,0"
         clip-rule="nonzero"
         id="path8" />
    </clipPath>
    <clipPath
       id="73208c2f70">
      <path
         d="m 362,338.04687 h 65 V 426 h -65 z m 0,0"
         clip-rule="nonzero"
         id="path9" />
    </clipPath>
  </defs>
  <g
     clip-path="url(#570a36d6fb)"
     id="g11"
     transform="translate(-13.913545,-122.72563)">
    <g
       clip-path="url(#ce4f117bc9)"
       id="g10">
      <path
         stroke-linecap="butt"
         transform="matrix(0.75,0,0,0.75,105.47632,194.82468)"
         fill="none"
         stroke-linejoin="miter"
         d="m 175.00034,-6.18998e-4 h 150 c 46.41146,0 90.92709,18.437500998 123.7448,51.255210998 32.81771,32.822918 51.25521,77.333338 51.25521,123.744798 V 324.9994 c 0,46.41146 -18.4375,90.92709 -51.25521,123.74479 -32.81771,32.81772 -77.33334,51.25522 -123.7448,51.25522 h -150 c -46.41146,0 -90.927092,-18.4375 -123.744802,-51.25522 C 18.437828,415.92649 3.27446e-4,371.41086 3.27446e-4,324.9994 V 174.99939 C 3.27446e-4,128.58793 18.437828,84.07751 51.255538,51.254592 84.073248,18.436882 128.58888,-6.18998e-4 175.00034,-6.18998e-4 Z m 0,0"
         stroke="#ffffff"
         stroke-width="92"
         stroke-opacity="1"
         stroke-miterlimit="4"
         id="path10" />
    </g>
  </g>
  <g
     clip-path="url(#817a982b62)"
     id="g14"
     transform="translate(-13.913545,-122.72563)">
    <g
       clip-path="url(#1dabc5c7b4)"
       id="g13">
      <g
         clip-path="url(#f57df962ea)"
         id="g12">
        <path
           fill="#ffffff"
           d="m 142.50391,642.05859 -96.136722,-80.22656 70.097652,-84 96.13672,80.23047 z m 0,0"
           fill-opacity="1"
           fill-rule="nonzero"
           id="path11" />
      </g>
    </g>
  </g>
  <g
     clip-path="url(#b4b3ae8290)"
     id="g15"
     transform="translate(-13.913545,-122.72563)">
    <path
       fill="#ffffff"
       d="m 229.12109,393.71094 c 1.08985,14.85937 8.54688,28.02343 24.67969,31.98047 2.45703,0.60546 4.98438,0.90234 7.51953,0.90234 17.36719,0 31.44141,-14.07813 31.44141,-31.44531 0,-7.67188 -2.85547,-15.1836 -7.96094,-20.91016 -2.51953,-2.82422 -5.53906,-5.19141 -8.89062,-6.94922 -3.90625,-2.04687 -7.76563,-2.41797 -11.92188,-3.53906 -3.83984,-1.03516 -3.83594,-6.26172 -2.86719,-9.35938 1.66016,-5.3164 5.61719,-8.84375 11.17969,-9.5039 1.14063,-0.13672 2.30078,-0.17969 3.42578,-0.44141 2.21485,-0.51562 4.125,-2.39453 1.66016,-3.96484 -3.80469,-2.42969 -10.06641,-1.98438 -14.28125,-1.16016 -4.84766,0.95313 -9.41406,3.08594 -13.45703,5.89453 -13.59375,9.4336 -21.86328,30.23828 -20.52735,48.4961 z m 0,0"
       fill-opacity="1"
       fill-rule="nonzero"
       id="path14" />
  </g>
  <g
     clip-path="url(#5be83d30e8)"
     id="g16"
     transform="translate(-13.913545,-122.72563)">
    <path
       fill="#ffffff"
       d="m 159.60937,393.71094 c 1.08594,14.85937 8.54297,28.02343 24.67579,31.98047 2.45703,0.60546 4.98828,0.90234 7.51953,0.90234 17.36718,0 31.44531,-14.07813 31.44531,-31.44531 0,-7.67188 -2.85547,-15.1836 -7.96094,-20.91016 -2.51953,-2.82422 -5.53906,-5.19141 -8.89453,-6.94922 -3.90234,-2.04687 -7.76172,-2.41797 -11.91797,-3.53906 -3.84375,-1.03516 -3.83594,-6.26172 -2.86719,-9.35938 1.66016,-5.3164 5.61719,-8.84375 11.17579,-9.5039 1.14453,-0.13672 2.30468,-0.17969 3.42968,-0.44141 2.21094,-0.51562 4.1211,-2.39453 1.66016,-3.96484 -3.80469,-2.42969 -10.06641,-1.98438 -14.28125,-1.16016 -4.84766,0.95313 -9.41406,3.08594 -13.46094,5.89453 -13.58984,9.4336 -21.85937,30.23828 -20.52344,48.4961 z m 0,0"
       fill-opacity="1"
       fill-rule="nonzero"
       id="path15" />
  </g>
  <g
     fill="#ffffff"
     fill-opacity="1"
     id="g19"
     transform="matrix(1.150903,0,0,1.150903,-207.26852,-174.41826)">
    <g
       transform="translate(637.05905,456.46375)"
       id="g18">
      <g
         id="g17">
        <path
           d="M 15.25,0 43.21875,-159.25 H 109.875 c 15.16406,0 26.42578,4.51563 33.78125,13.54688 7.36328,9.02343 11.04687,19.67187 11.04687,31.95312 0,15.324219 -5.3125,28.335938 -15.9375,39.03125 -10.61718,10.6875 -25.02343,16.03125 -43.218745,16.03125 H 56.640625 L 46.40625,0 Z m 83.484375,-87.8125 c 8.039065,0 14.109375,-2.382812 18.203125,-7.15625 4.09375,-4.78125 6.14063,-10.05469 6.14063,-15.82813 0,-12.88281 -5.60938,-19.32812 -16.82813,-19.32812 H 69.390625 L 61.875,-87.8125 Z m 0,0"
           id="path16" />
      </g>
    </g>
  </g>
  <g
     fill="#ffffff"
     fill-opacity="1"
     id="g22"
     transform="matrix(1.150903,0,0,1.150903,-207.26852,-174.41826)">
    <g
       transform="translate(776.96894,456.46375)"
       id="g21">
      <g
         id="g20">
        <path
           d="m 64.609375,2.734375 c -14.867187,0 -26.65625,-4.285156 -35.375,-12.859375 -8.71875,-8.570312 -13.078125,-20.816406 -13.078125,-36.734375 0,-19.113281 5.796875,-35.910156 17.390625,-50.390625 11.601563,-14.48828 27.039063,-21.73438 46.3125,-21.73438 13.945313,0 24.863285,4.32422 32.750005,12.96875 7.88281,8.648442 11.82812,19.871099 11.82812,33.67188 0,8.949219 -1.4375,17.515625 -4.3125,25.703125 H 45.953125 v 2.28125 c 0,6.523437 2.160156,11.679687 6.484375,15.46875 4.320312,3.792969 9.59375,5.6875 15.8125,5.6875 9.851562,0 18.570312,-4.019531 26.15625,-12.0625 l 15.01563,19.109375 C 97.296875,-3.5625 82.359375,2.734375 64.609375,2.734375 Z M 50.28125,-71.65625 h 45.953125 c 0,-1.519531 -0.152344,-3.34375 -0.453125,-5.46875 -1.980469,-10.613281 -8.351562,-15.921875 -19.109375,-15.921875 -6.523437,0 -12.101563,1.824219 -16.734375,5.46875 -4.625,3.636719 -7.84375,8.945313 -9.65625,15.921875 z m 0,0"
           id="path19" />
      </g>
    </g>
  </g>
  <g
     fill="#ffffff"
     fill-opacity="1"
     id="g25"
     transform="matrix(1.150903,0,0,1.150903,-207.26852,-174.41826)">
    <g
       transform="translate(897.0867,456.46375)"
       id="g24">
      <g
         id="g23">
        <path
           d="M 15.25,0 35.71875,-116.25 H 65.0625 l -2.046875,11.59375 c 7.4375,-9.55078 16.992187,-14.32813 28.671875,-14.32813 11.07031,0 19.52344,3.45313 25.35938,10.35938 5.84375,6.89844 8.76562,15.652344 8.76562,26.265625 0,3.949219 -0.60937,9.257813 -1.82812,15.921875 L 112.15625,0 h -29.125 l 11.375,-64.15625 c 0.757812,-4.851562 1.140625,-8.566406 1.140625,-11.140625 0,-10.625 -4.929687,-15.9375 -14.78125,-15.9375 -5.460937,0 -10.578125,2.054687 -15.359375,6.15625 -4.78125,4.09375 -7.855469,10.15625 -9.21875,18.1875 L 44.359375,0 Z m 0,0"
           id="path22" />
      </g>
    </g>
  </g>
  <g
     fill="#ffffff"
     fill-opacity="1"
     id="g28"
     transform="matrix(1.150903,0,0,1.150903,-207.26852,-174.41826)">
    <g
       transform="translate(1023.8018,456.46375)"
       id="g27">
      <g
         id="g26">
        <path
           d="m 54.828125,2.734375 c -9.554687,0 -18.351563,-1.96875 -26.390625,-5.90625 C 20.394531,-7.117188 14.707031,-12.28125 11.375,-18.65625 L 32.53125,-34.8125 c 6.820312,8.34375 15.238281,12.515625 25.25,12.515625 4.550781,0 8.457031,-0.867187 11.71875,-2.609375 3.257812,-1.75 4.890625,-4.367188 4.890625,-7.859375 0,-3.03125 -2.578125,-6.097656 -7.734375,-9.203125 C 61.5,-45.082031 55.8125,-47.925781 49.59375,-50.5 43.375,-53.082031 37.6875,-57.140625 32.53125,-62.671875 27.375,-68.210938 24.796875,-74.695312 24.796875,-82.125 c 0,-11.226562 4.320313,-20.17578 12.96875,-26.84375 8.644531,-6.67578 19.789063,-10.01563 33.4375,-10.01563 8.644531,0 16.457031,1.89844 23.4375,5.6875 6.976565,3.79297 12.132815,8.11719 15.468755,12.96875 l -22.062505,16.156255 c -4.710937,-6.820313 -11.386719,-10.234375 -20.03125,-10.234375 -4.398437,0 -7.960937,0.914062 -10.6875,2.734375 -2.730469,1.8125 -4.09375,4.234375 -4.09375,7.265625 0,2.28125 1.742187,4.523438 5.234375,6.71875 3.488281,2.199219 7.695312,4.398438 12.625,6.59375 4.925781,2.199219 9.816406,4.742188 14.671875,7.625 4.851563,2.875 9.023437,6.703125 12.515625,11.484375 3.48828,4.78125 5.23438,10.203125 5.23438,16.265625 0,11.980469 -4.367192,21.386719 -13.093755,28.21875 -8.71875,6.824219 -20.585937,10.234375 -35.59375,10.234375 z m 0,0"
           id="path25" />
      </g>
    </g>
  </g>
  <g
     fill="#ffffff"
     fill-opacity="1"
     id="g31"
     transform="matrix(1.150903,0,0,1.150903,-207.26852,-174.41826)">
    <g
       transform="translate(1129.3598,456.46375)"
       id="g30">
      <g
         id="g29">
        <path
           d="m 64.609375,2.734375 c -14.867187,0 -26.65625,-4.285156 -35.375,-12.859375 -8.71875,-8.570312 -13.078125,-20.816406 -13.078125,-36.734375 0,-19.113281 5.796875,-35.910156 17.390625,-50.390625 11.601563,-14.48828 27.039063,-21.73438 46.3125,-21.73438 13.945313,0 24.863285,4.32422 32.750005,12.96875 7.88281,8.648442 11.82812,19.871099 11.82812,33.67188 0,8.949219 -1.4375,17.515625 -4.3125,25.703125 H 45.953125 v 2.28125 c 0,6.523437 2.160156,11.679687 6.484375,15.46875 4.320312,3.792969 9.59375,5.6875 15.8125,5.6875 9.851562,0 18.570312,-4.019531 26.15625,-12.0625 l 15.01563,19.109375 C 97.296875,-3.5625 82.359375,2.734375 64.609375,2.734375 Z M 50.28125,-71.65625 h 45.953125 c 0,-1.519531 -0.152344,-3.34375 -0.453125,-5.46875 -1.980469,-10.613281 -8.351562,-15.921875 -19.109375,-15.921875 -6.523437,0 -12.101563,1.824219 -16.734375,5.46875 -4.625,3.636719 -7.84375,8.945313 -9.65625,15.921875 z m 0,0"
           id="path28" />
      </g>
    </g>
  </g>
  <g
     fill="#ffffff"
     fill-opacity="1"
     id="g34"
     transform="matrix(1.150903,0,0,1.150903,-207.26852,-174.41826)">
    <g
       transform="translate(1249.4776,456.46375)"
       id="g33">
      <g
         id="g32">
        <path
           d="m 14.5625,0 20.46875,-116.25 h 29.125 l -2.046875,10.92187 c 2.269531,-3.94531 5.566406,-7.24218 9.890625,-9.89062 4.320312,-2.65625 9.0625,-3.98438 14.21875,-3.98438 7.738281,0 14.48828,3.03125 20.25,9.09375 l -8.640625,27.07813 C 92.367188,-87.882812 86.300781,-90.3125 79.625,-90.3125 c -5.460938,0 -10.5,1.976562 -15.125,5.921875 -4.625,3.9375 -7.773438,10.453125 -9.4375,19.546875 L 43.6875,0 Z m 0,0"
           id="path31" />
      </g>
    </g>
  </g>
  <g
     fill="#ffffff"
     fill-opacity="1"
     id="g37"
     transform="matrix(1.150903,0,0,1.150903,-207.26852,-174.41826)">
    <g
       transform="translate(1340.9308,456.46375)"
       id="g36">
      <g
         id="g35">
        <path
           d="m 26.84375,2.734375 c -4.699219,0 -8.527344,-1.515625 -11.484375,-4.546875 -2.960937,-3.039062 -4.4375,-6.757812 -4.4375,-11.15625 0,-6.21875 1.96875,-11.410156 5.90625,-15.578125 3.945313,-4.175781 8.726563,-6.265625 14.34375,-6.265625 5,0 9.015625,1.480469 12.046875,4.4375 3.039062,2.960938 4.5625,6.714844 4.5625,11.265625 0,6.367187 -1.976562,11.601563 -5.921875,15.703125 C 37.910156,0.6875 32.90625,2.734375 26.84375,2.734375 Z m 0,0"
           id="path34" />
      </g>
    </g>
  </g>
  <g
     clip-path="url(#641a4328dd)"
     id="g38"
     transform="translate(-13.913545,-122.72563)">
    <path
       fill="#ffffff"
       d="m 356.82422,370.93359 c -1.08985,-14.85937 -8.54688,-28.02343 -24.67969,-31.98437 -2.45703,-0.60156 -4.98828,-0.90235 -7.51953,-0.90235 -17.36719,0 -31.44531,14.07813 -31.44531,31.44532 0,7.67578 2.85937,15.18359 7.96484,20.91406 2.51563,2.82422 5.53906,5.1875 8.89063,6.94531 3.90625,2.05078 7.76171,2.42188 11.91796,3.54297 3.84375,1.03125 3.83594,6.25781 2.86719,9.35547 -1.66015,5.31641 -5.61328,8.84766 -11.17578,9.50781 -1.14062,0.13281 -2.30469,0.17578 -3.42969,0.4375 -2.21093,0.51953 -4.12109,2.39453 -1.65625,3.96875 3.80078,2.42578 10.06641,1.98438 14.28125,1.15625 4.84766,-0.94922 9.41407,-3.08594 13.45703,-5.89062 13.59375,-9.4336 21.86329,-30.24219 20.52735,-48.4961 z m 0,0"
       fill-opacity="1"
       fill-rule="nonzero"
       id="path37" />
  </g>
  <g
     clip-path="url(#73208c2f70)"
     id="g39"
     transform="translate(-13.913545,-122.72563)">
    <path
       fill="#ffffff"
       d="m 426.33594,370.93359 c -1.08985,-14.85937 -8.54688,-28.02343 -24.67969,-31.98437 -2.45703,-0.60156 -4.98438,-0.90235 -7.51953,-0.90235 -17.36719,0 -31.44531,14.07813 -31.44531,31.44532 0,7.67578 2.85937,15.18359 7.96484,20.91406 2.51953,2.82422 5.53906,5.1875 8.89062,6.94531 3.90625,2.05078 7.76172,2.42188 11.91797,3.54297 3.84375,1.03125 3.83594,6.25781 2.8711,9.35547 -1.66016,5.31641 -5.61719,8.84766 -11.17969,9.50781 -1.14063,0.13281 -2.30078,0.17578 -3.42578,0.4375 -2.21485,0.51953 -4.125,2.39453 -1.66016,3.96875 3.80078,2.42578 10.06641,1.98438 14.28125,1.15625 4.84766,-0.94922 9.41406,-3.08594 13.45703,-5.89062 13.59375,-9.4336 21.86328,-30.24219 20.52735,-48.4961 z m 0,0"
       fill-opacity="1"
       fill-rule="nonzero"
       id="path38" />
  </g>
</svg>
