<svg xmlns="http://www.w3.org/2000/svg" xmlns:xlink="http://www.w3.org/1999/xlink" width="1920" zoomAndPan="magnify" viewBox="0 0 1440 809.999993" height="1080" preserveAspectRatio="xMidYMid meet" version="1.0"><defs><g/><clipPath id="570a36d6fb"><path d="M 105.476562 194.824219 L 480.476562 194.824219 L 480.476562 569.824219 L 105.476562 569.824219 Z M 105.476562 194.824219 " clip-rule="nonzero"/></clipPath><clipPath id="ce4f117bc9"><path d="M 236.726562 194.824219 L 349.226562 194.824219 C 384.035156 194.824219 417.417969 208.652344 442.035156 233.265625 C 466.648438 257.882812 480.476562 291.265625 480.476562 326.074219 L 480.476562 438.574219 C 480.476562 473.382812 466.648438 506.769531 442.035156 531.382812 C 417.417969 555.996094 384.035156 569.824219 349.226562 569.824219 L 236.726562 569.824219 C 201.917969 569.824219 168.53125 555.996094 143.917969 531.382812 C 119.304688 506.769531 105.476562 473.382812 105.476562 438.574219 L 105.476562 326.074219 C 105.476562 291.265625 119.304688 257.882812 143.917969 233.265625 C 168.53125 208.652344 201.917969 194.824219 236.726562 194.824219 Z M 236.726562 194.824219 " clip-rule="nonzero"/></clipPath><clipPath id="817a982b62"><path d="M 94 477 L 213 477 L 213 603 L 94 603 Z M 94 477 " clip-rule="nonzero"/></clipPath><clipPath id="1dabc5c7b4"><path d="M 142.503906 642.058594 L 46.367188 561.832031 L 116.464844 477.832031 L 212.601562 558.0625 Z M 142.503906 642.058594 " clip-rule="nonzero"/></clipPath><clipPath id="f57df962ea"><path d="M 94.503906 602.003906 L 116.605469 477.949219 L 212.601562 558.0625 Z M 94.503906 602.003906 " clip-rule="nonzero"/></clipPath><clipPath id="b4b3ae8290"><path d="M 228 338.09375 L 292.96875 338.09375 L 292.96875 426.59375 L 228 426.59375 Z M 228 338.09375 " clip-rule="nonzero"/></clipPath><clipPath id="5be83d30e8"><path d="M 159 338.09375 L 224 338.09375 L 224 426.59375 L 159 426.59375 Z M 159 338.09375 " clip-rule="nonzero"/></clipPath><clipPath id="641a4328dd"><path d="M 293 338.046875 L 357 338.046875 L 357 426 L 293 426 Z M 293 338.046875 " clip-rule="nonzero"/></clipPath><clipPath id="73208c2f70"><path d="M 362 338.046875 L 427 338.046875 L 427 426 L 362 426 Z M 362 338.046875 " clip-rule="nonzero"/></clipPath></defs><g clip-path="url(#570a36d6fb)"><g clip-path="url(#ce4f117bc9)"><path stroke-linecap="butt" transform="matrix(0.75, 0, 0, 0.75, 105.476317, 194.824683)" fill="none" stroke-linejoin="miter" d="M 175.000336 -0.000618998 L 325.000344 -0.000618998 C 371.411804 -0.000618998 415.927432 18.436882 448.745142 51.254592 C 481.562852 84.07751 500.000353 128.587929 500.000353 174.99939 L 500.000353 324.999397 C 500.000353 371.410858 481.562852 415.926485 448.745142 448.744195 C 415.927432 481.561905 371.411804 499.999406 325.000344 499.999406 L 175.000336 499.999406 C 128.588876 499.999406 84.073248 481.561905 51.255538 448.744195 C 18.437828 415.926485 0.000327446 371.410858 0.000327446 324.999397 L 0.000327446 174.99939 C 0.000327446 128.587929 18.437828 84.07751 51.255538 51.254592 C 84.073248 18.436882 128.588876 -0.000618998 175.000336 -0.000618998 Z M 175.000336 -0.000618998 " stroke="#ffffff" stroke-width="92" stroke-opacity="1" stroke-miterlimit="4"/></g></g><g clip-path="url(#817a982b62)"><g clip-path="url(#1dabc5c7b4)"><g clip-path="url(#f57df962ea)"><path fill="#ffffff" d="M 142.503906 642.058594 L 46.367188 561.832031 L 116.464844 477.832031 L 212.601562 558.0625 Z M 142.503906 642.058594 " fill-opacity="1" fill-rule="nonzero"/></g></g></g><g clip-path="url(#b4b3ae8290)"><path fill="#ffffff" d="M 229.121094 393.710938 C 230.210938 408.570312 237.667969 421.734375 253.800781 425.691406 C 256.257812 426.296875 258.785156 426.59375 261.320312 426.59375 C 278.6875 426.59375 292.761719 412.515625 292.761719 395.148438 C 292.761719 387.476562 289.90625 379.964844 284.800781 374.238281 C 282.28125 371.414062 279.261719 369.046875 275.910156 367.289062 C 272.003906 365.242188 268.144531 364.871094 263.988281 363.75 C 260.148438 362.714844 260.152344 357.488281 261.121094 354.390625 C 262.78125 349.074219 266.738281 345.546875 272.300781 344.886719 C 273.441406 344.75 274.601562 344.707031 275.726562 344.445312 C 277.941406 343.929688 279.851562 342.050781 277.386719 340.480469 C 273.582031 338.050781 267.320312 338.496094 263.105469 339.320312 C 258.257812 340.273438 253.691406 342.40625 249.648438 345.214844 C 236.054688 354.648438 227.785156 375.453125 229.121094 393.710938 Z M 229.121094 393.710938 " fill-opacity="1" fill-rule="nonzero"/></g><g clip-path="url(#5be83d30e8)"><path fill="#ffffff" d="M 159.609375 393.710938 C 160.695312 408.570312 168.152344 421.734375 184.285156 425.691406 C 186.742188 426.296875 189.273438 426.59375 191.804688 426.59375 C 209.171875 426.59375 223.25 412.515625 223.25 395.148438 C 223.25 387.476562 220.394531 379.964844 215.289062 374.238281 C 212.769531 371.414062 209.75 369.046875 206.394531 367.289062 C 202.492188 365.242188 198.632812 364.871094 194.476562 363.75 C 190.632812 362.714844 190.640625 357.488281 191.609375 354.390625 C 193.269531 349.074219 197.226562 345.546875 202.785156 344.886719 C 203.929688 344.75 205.089844 344.707031 206.214844 344.445312 C 208.425781 343.929688 210.335938 342.050781 207.875 340.480469 C 204.070312 338.050781 197.808594 338.496094 193.59375 339.320312 C 188.746094 340.273438 184.179688 342.40625 180.132812 345.214844 C 166.542969 354.648438 158.273438 375.453125 159.609375 393.710938 Z M 159.609375 393.710938 " fill-opacity="1" fill-rule="nonzero"/></g><g fill="#ffffff" fill-opacity="1"><g transform="translate(637.059046, 456.463753)"><g><path d="M 15.25 0 L 43.21875 -159.25 L 109.875 -159.25 C 125.039062 -159.25 136.300781 -154.734375 143.65625 -145.703125 C 151.019531 -136.679688 154.703125 -126.03125 154.703125 -113.75 C 154.703125 -98.425781 149.390625 -85.414062 138.765625 -74.71875 C 128.148438 -64.03125 113.742188 -58.6875 95.546875 -58.6875 L 56.640625 -58.6875 L 46.40625 0 Z M 98.734375 -87.8125 C 106.773438 -87.8125 112.84375 -90.195312 116.9375 -94.96875 C 121.03125 -99.75 123.078125 -105.023438 123.078125 -110.796875 C 123.078125 -123.679688 117.46875 -130.125 106.25 -130.125 L 69.390625 -130.125 L 61.875 -87.8125 Z M 98.734375 -87.8125 "/></g></g></g><g fill="#ffffff" fill-opacity="1"><g transform="translate(776.968942, 456.463753)"><g><path d="M 64.609375 2.734375 C 49.742188 2.734375 37.953125 -1.550781 29.234375 -10.125 C 20.515625 -18.695312 16.15625 -30.941406 16.15625 -46.859375 C 16.15625 -65.972656 21.953125 -82.769531 33.546875 -97.25 C 45.148438 -111.738281 60.585938 -118.984375 79.859375 -118.984375 C 93.804688 -118.984375 104.722656 -114.660156 112.609375 -106.015625 C 120.492188 -97.367188 124.4375 -86.144531 124.4375 -72.34375 C 124.4375 -63.394531 123 -54.828125 120.125 -46.640625 L 45.953125 -46.640625 L 45.953125 -44.359375 C 45.953125 -37.835938 48.113281 -32.679688 52.4375 -28.890625 C 56.757812 -25.097656 62.03125 -23.203125 68.25 -23.203125 C 78.101562 -23.203125 86.820312 -27.222656 94.40625 -35.265625 L 109.421875 -16.15625 C 97.296875 -3.5625 82.359375 2.734375 64.609375 2.734375 Z M 50.28125 -71.65625 L 96.234375 -71.65625 C 96.234375 -73.175781 96.082031 -75 95.78125 -77.125 C 93.800781 -87.738281 87.429688 -93.046875 76.671875 -93.046875 C 70.148438 -93.046875 64.570312 -91.222656 59.9375 -87.578125 C 55.3125 -83.941406 52.09375 -78.632812 50.28125 -71.65625 Z M 50.28125 -71.65625 "/></g></g></g><g fill="#ffffff" fill-opacity="1"><g transform="translate(897.086703, 456.463753)"><g><path d="M 15.25 0 L 35.71875 -116.25 L 65.0625 -116.25 L 63.015625 -104.65625 C 70.453125 -114.207031 80.007812 -118.984375 91.6875 -118.984375 C 102.757812 -118.984375 111.210938 -115.53125 117.046875 -108.625 C 122.890625 -101.726562 125.8125 -92.972656 125.8125 -82.359375 C 125.8125 -78.410156 125.203125 -73.101562 123.984375 -66.4375 L 112.15625 0 L 83.03125 0 L 94.40625 -64.15625 C 95.164062 -69.007812 95.546875 -72.722656 95.546875 -75.296875 C 95.546875 -85.921875 90.617188 -91.234375 80.765625 -91.234375 C 75.304688 -91.234375 70.1875 -89.179688 65.40625 -85.078125 C 60.625 -80.984375 57.550781 -74.921875 56.1875 -66.890625 L 44.359375 0 Z M 15.25 0 "/></g></g></g><g fill="#ffffff" fill-opacity="1"><g transform="translate(1023.801807, 456.463753)"><g><path d="M 54.828125 2.734375 C 45.273438 2.734375 36.476562 0.765625 28.4375 -3.171875 C 20.394531 -7.117188 14.707031 -12.28125 11.375 -18.65625 L 32.53125 -34.8125 C 39.351562 -26.46875 47.769531 -22.296875 57.78125 -22.296875 C 62.332031 -22.296875 66.238281 -23.164062 69.5 -24.90625 C 72.757812 -26.65625 74.390625 -29.273438 74.390625 -32.765625 C 74.390625 -35.796875 71.8125 -38.863281 66.65625 -41.96875 C 61.5 -45.082031 55.8125 -47.925781 49.59375 -50.5 C 43.375 -53.082031 37.6875 -57.140625 32.53125 -62.671875 C 27.375 -68.210938 24.796875 -74.695312 24.796875 -82.125 C 24.796875 -93.351562 29.117188 -102.300781 37.765625 -108.96875 C 46.410156 -115.644531 57.554688 -118.984375 71.203125 -118.984375 C 79.847656 -118.984375 87.660156 -117.085938 94.640625 -113.296875 C 101.617188 -109.503906 106.773438 -105.179688 110.109375 -100.328125 L 88.046875 -84.171875 C 83.335938 -90.992188 76.660156 -94.40625 68.015625 -94.40625 C 63.617188 -94.40625 60.054688 -93.492188 57.328125 -91.671875 C 54.597656 -89.859375 53.234375 -87.4375 53.234375 -84.40625 C 53.234375 -82.125 54.976562 -79.882812 58.46875 -77.6875 C 61.957031 -75.488281 66.164062 -73.289062 71.09375 -71.09375 C 76.019531 -68.894531 80.910156 -66.351562 85.765625 -63.46875 C 90.617188 -60.59375 94.789062 -56.765625 98.28125 -51.984375 C 101.769531 -47.203125 103.515625 -41.78125 103.515625 -35.71875 C 103.515625 -23.738281 99.148438 -14.332031 90.421875 -7.5 C 81.703125 -0.675781 69.835938 2.734375 54.828125 2.734375 Z M 54.828125 2.734375 "/></g></g></g><g fill="#ffffff" fill-opacity="1"><g transform="translate(1129.359845, 456.463753)"><g><path d="M 64.609375 2.734375 C 49.742188 2.734375 37.953125 -1.550781 29.234375 -10.125 C 20.515625 -18.695312 16.15625 -30.941406 16.15625 -46.859375 C 16.15625 -65.972656 21.953125 -82.769531 33.546875 -97.25 C 45.148438 -111.738281 60.585938 -118.984375 79.859375 -118.984375 C 93.804688 -118.984375 104.722656 -114.660156 112.609375 -106.015625 C 120.492188 -97.367188 124.4375 -86.144531 124.4375 -72.34375 C 124.4375 -63.394531 123 -54.828125 120.125 -46.640625 L 45.953125 -46.640625 L 45.953125 -44.359375 C 45.953125 -37.835938 48.113281 -32.679688 52.4375 -28.890625 C 56.757812 -25.097656 62.03125 -23.203125 68.25 -23.203125 C 78.101562 -23.203125 86.820312 -27.222656 94.40625 -35.265625 L 109.421875 -16.15625 C 97.296875 -3.5625 82.359375 2.734375 64.609375 2.734375 Z M 50.28125 -71.65625 L 96.234375 -71.65625 C 96.234375 -73.175781 96.082031 -75 95.78125 -77.125 C 93.800781 -87.738281 87.429688 -93.046875 76.671875 -93.046875 C 70.148438 -93.046875 64.570312 -91.222656 59.9375 -87.578125 C 55.3125 -83.941406 52.09375 -78.632812 50.28125 -71.65625 Z M 50.28125 -71.65625 "/></g></g></g><g fill="#ffffff" fill-opacity="1"><g transform="translate(1249.47758, 456.463753)"><g><path d="M 14.5625 0 L 35.03125 -116.25 L 64.15625 -116.25 L 62.109375 -105.328125 C 64.378906 -109.273438 67.675781 -112.570312 72 -115.21875 C 76.320312 -117.875 81.0625 -119.203125 86.21875 -119.203125 C 93.957031 -119.203125 100.707031 -116.171875 106.46875 -110.109375 L 97.828125 -83.03125 C 92.367188 -87.882812 86.300781 -90.3125 79.625 -90.3125 C 74.164062 -90.3125 69.125 -88.335938 64.5 -84.390625 C 59.875 -80.453125 56.726562 -73.9375 55.0625 -64.84375 L 43.6875 0 Z M 14.5625 0 "/></g></g></g><g fill="#ffffff" fill-opacity="1"><g transform="translate(1340.930828, 456.463753)"><g><path d="M 26.84375 2.734375 C 22.144531 2.734375 18.316406 1.21875 15.359375 -1.8125 C 12.398438 -4.851562 10.921875 -8.570312 10.921875 -12.96875 C 10.921875 -19.1875 12.890625 -24.378906 16.828125 -28.546875 C 20.773438 -32.722656 25.554688 -34.8125 31.171875 -34.8125 C 36.171875 -34.8125 40.1875 -33.332031 43.21875 -30.375 C 46.257812 -27.414062 47.78125 -23.660156 47.78125 -19.109375 C 47.78125 -12.742188 45.804688 -7.507812 41.859375 -3.40625 C 37.910156 0.6875 32.90625 2.734375 26.84375 2.734375 Z M 26.84375 2.734375 "/></g></g></g><g clip-path="url(#641a4328dd)"><path fill="#ffffff" d="M 356.824219 370.933594 C 355.734375 356.074219 348.277344 342.910156 332.144531 338.949219 C 329.6875 338.347656 327.15625 338.046875 324.625 338.046875 C 307.257812 338.046875 293.179688 352.125 293.179688 369.492188 C 293.179688 377.167969 296.039062 384.675781 301.144531 390.40625 C 303.660156 393.230469 306.683594 395.59375 310.035156 397.351562 C 313.941406 399.402344 317.796875 399.773438 321.953125 400.894531 C 325.796875 401.925781 325.789062 407.152344 324.820312 410.25 C 323.160156 415.566406 319.207031 419.097656 313.644531 419.757812 C 312.503906 419.890625 311.339844 419.933594 310.214844 420.195312 C 308.003906 420.714844 306.09375 422.589844 308.558594 424.164062 C 312.359375 426.589844 318.625 426.148438 322.839844 425.320312 C 327.6875 424.371094 332.253906 422.234375 336.296875 419.429688 C 349.890625 409.996094 358.160156 389.1875 356.824219 370.933594 Z M 356.824219 370.933594 " fill-opacity="1" fill-rule="nonzero"/></g><g clip-path="url(#73208c2f70)"><path fill="#ffffff" d="M 426.335938 370.933594 C 425.246094 356.074219 417.789062 342.910156 401.65625 338.949219 C 399.199219 338.347656 396.671875 338.046875 394.136719 338.046875 C 376.769531 338.046875 362.691406 352.125 362.691406 369.492188 C 362.691406 377.167969 365.550781 384.675781 370.65625 390.40625 C 373.175781 393.230469 376.195312 395.59375 379.546875 397.351562 C 383.453125 399.402344 387.308594 399.773438 391.464844 400.894531 C 395.308594 401.925781 395.300781 407.152344 394.335938 410.25 C 392.675781 415.566406 388.71875 419.097656 383.15625 419.757812 C 382.015625 419.890625 380.855469 419.933594 379.730469 420.195312 C 377.515625 420.714844 375.605469 422.589844 378.070312 424.164062 C 381.871094 426.589844 388.136719 426.148438 392.351562 425.320312 C 397.199219 424.371094 401.765625 422.234375 405.808594 419.429688 C 419.402344 409.996094 427.671875 389.1875 426.335938 370.933594 Z M 426.335938 370.933594 " fill-opacity="1" fill-rule="nonzero"/></g></svg>