<?xml version="1.0" encoding="UTF-8" standalone="no"?>
<svg
   width="500"
   zoomAndPan="magnify"
   viewBox="0 0 375 374.999991"
   height="500"
   preserveAspectRatio="xMidYMid meet"
   version="1.0"
   id="svg11"
   sodipodi:docname="Zapper.svg"
   inkscape:version="1.3 (0e150ed6c4, 2023-07-21)"
   xmlns:inkscape="http://www.inkscape.org/namespaces/inkscape"
   xmlns:sodipodi="http://sodipodi.sourceforge.net/DTD/sodipodi-0.dtd"
   xmlns="http://www.w3.org/2000/svg"
   xmlns:svg="http://www.w3.org/2000/svg">
  <sodipodi:namedview
     id="namedview11"
     pagecolor="#505050"
     bordercolor="#eeeeee"
     borderopacity="1"
     inkscape:showpageshadow="0"
     inkscape:pageopacity="0"
     inkscape:pagecheckerboard="0"
     inkscape:deskcolor="#505050"
     inkscape:zoom="1.6079608"
     inkscape:cx="126.24686"
     inkscape:cy="255.9142"
     inkscape:window-width="2560"
     inkscape:window-height="1351"
     inkscape:window-x="1341"
     inkscape:window-y="-9"
     inkscape:window-maximized="1"
     inkscape:current-layer="svg11" />
  <defs
     id="defs6">
    <clipPath
       id="0f79842d28">
      <path
         d="M 4 5 L 370 5 L 370 371 L 4 371 Z M 4 5 "
         clip-rule="nonzero"
         id="path1" />
    </clipPath>
    <clipPath
       id="35076b6131">
      <path
         d="M 234.5625 25.15625 L 349.84375 140.4375 C 362.503906 153.09375 369.613281 170.265625 369.613281 188.167969 C 369.613281 206.066406 362.503906 223.238281 349.84375 235.894531 L 234.5625 351.175781 C 221.90625 363.835938 204.734375 370.945312 186.832031 370.945312 C 168.933594 370.945312 151.761719 363.835938 139.105469 351.175781 L 23.824219 235.894531 C 11.164062 223.238281 4.054688 206.066406 4.054688 188.167969 C 4.054688 170.265625 11.164062 153.09375 23.824219 140.4375 L 139.105469 25.15625 C 151.761719 12.496094 168.933594 5.386719 186.832031 5.386719 C 204.734375 5.386719 221.90625 12.496094 234.5625 25.15625 Z M 234.5625 25.15625 "
         clip-rule="nonzero"
         id="path2" />
    </clipPath>
    <clipPath
       id="a155393b91">
      <path
         d="M 30 0 L 339 0 L 339 375 L 30 375 Z M 30 0 "
         clip-rule="nonzero"
         id="path3" />
    </clipPath>
    <clipPath
       id="8a4d9de1c2">
      <path
         d="M 179.933594 -131.144531 L 375.894531 -74.441406 L 193.484375 555.949219 L -2.476562 499.246094 Z M 179.933594 -131.144531 "
         clip-rule="nonzero"
         id="path4" />
    </clipPath>
    <clipPath
       id="d1995a7959">
      <path
         d="M 160.128906 -62.699219 L 356.089844 -5.996094 L 226.839844 440.679688 L 30.878906 383.976562 Z M 160.128906 -62.699219 "
         clip-rule="nonzero"
         id="path5" />
    </clipPath>
    <clipPath
       id="feaeda5b21">
      <path
         d="M 179.933594 -131.140625 L 375.894531 -74.4375 L 193.484375 555.949219 L -2.476562 499.246094 Z M 179.933594 -131.140625 "
         clip-rule="nonzero"
         id="path6" />
    </clipPath>
  </defs>
  <g
     clip-path="url(#35076b6131)"
     id="g6"
     style="opacity:1">
    <path
       id="rect6"
       style="opacity:1;fill:#ffffff"
       d="M -37.5 -37.5 L -37.5 412.5 L 54.858398 412.5 C 92.708795 350.72462 130.55853 288.95012 168.41015 227.17236 C 140.06253 218.97315 111.71921 210.76903 83.371581 202.56592 C 154.54065 122.54071 225.7087 42.52113 296.87548 -37.5 L -37.5 -37.5 z M 311.38183 -37.5 C 275.25469 24.640455 239.12565 86.782422 202.99951 148.92187 C 236.30026 158.55858 269.59817 168.19093 302.89892 177.82763 C 229.64031 256.04893 156.38117 334.27494 83.122558 412.5 L 412.5 412.5 L 412.5 -37.5 L 311.38183 -37.5 z " />
  </g>
</svg>
